<?xml version="1.0" encoding="utf-8"?>
<!-- Generator: Adobe Illustrator 27.5.0, SVG Export Plug-In . SVG Version: 6.00 Build 0)  -->
<svg version="1.1" xmlns="http://www.w3.org/2000/svg" xmlns:xlink="http://www.w3.org/1999/xlink" x="0px" y="0px"
	 viewBox="0 0 500 500" style="enable-background:new 0 0 500 500;" xml:space="preserve">
<g id="BACKGROUND">
	<rect style="fill:#FFFFFF;" width="500" height="500"/>
</g>
<g id="OBLECTS">
	<g>
		<path style="fill:#DEDEDE;" d="M449.573,419.542c2.658-5.107,3.853-10.691,2.973-16.168c-1.894-11.78-13.328-20.872-26.898-24.426
			c-10.586-2.773-21.925-2.813-33.051-2.828c-91.093-0.119-182.185-0.238-273.278-0.357c-13.464-0.018-27.173-0.007-40.027,3.238
			c-12.854,3.245-24.955,10.287-29.664,20.502c-2.112,4.582-2.645,9.556-2.411,14.443c0.407,8.516,3.478,17.455,11.354,23.108
			c6.476,4.648,15.299,6.466,23.862,7.475c20.117,2.372,40.815,0.509,61.047,0.107c22.433-0.446,44.874-0.527,67.312-0.416
			c44.195,0.218,88.376,1.196,132.567,1.639c24.824,0.249,49.791,1.822,74.04-3.667c11.109-2.514,21.059-8.257,27.618-15.941
			C446.808,424.155,448.347,421.899,449.573,419.542z"/>
		<path style="fill:#EBEBEB;" d="M428.472,291.765c3.183-2.982,2.858-7.843,2.858-14.694c0-7.505,0-15.011,0-22.516
			c0-31.33,0-62.661,0-93.991c0-15.982,0-31.965,0-47.948c0-15.884,1.54-25.168-16.314-25.176c-9.473-0.005-18.945,0-28.418,0
			c-29.492,0-58.984,0-88.476,0c-60.707,0-121.415,0-182.122,0c-8.534,0-17.068,0-25.603,0c-2.251,0-4.076,1.848-4.076,4.127
			c0,11.057,0,22.114,0,33.17c0,33.507,0,67.015,0.001,100.522c0,14.946,0,29.892,0.001,44.839c0,5.102-0.094,10.214,0.001,15.315
			c0.198,10.642,3.575,9.473,14.031,9.473c58.487,0,116.975,0,175.462,0c32.37,0,64.74,0,97.11,0c11.711,0,23.422,0,35.132,0
			c3.943,0,8.314,0.543,12.22,0.001C424.281,294.33,426.838,293.295,428.472,291.765z"/>
		<g>
			<g>
				
					<rect x="237.449" y="101.781" style="fill:none;stroke:#C9CED6;stroke-width:0.75;stroke-miterlimit:10;" width="42.641" height="31.843"/>
				
					<rect x="283.897" y="101.781" style="fill:none;stroke:#70588A;stroke-width:0.75;stroke-miterlimit:10;" width="42.641" height="31.843"/>
				
					<rect x="330.345" y="101.781" style="fill:none;stroke:#70588A;stroke-width:0.75;stroke-miterlimit:10;" width="42.641" height="31.843"/>
				
					<rect x="376.793" y="101.781" style="fill:none;stroke:#70588A;stroke-width:0.75;stroke-miterlimit:10;" width="42.641" height="31.843"/>
			</g>
			<g>
				
					<rect x="98.104" y="137.984" style="fill:none;stroke:#70588A;stroke-width:0.75;stroke-miterlimit:10;" width="42.641" height="31.843"/>
				
					<rect x="144.552" y="137.984" style="fill:none;stroke:#70588A;stroke-width:0.75;stroke-miterlimit:10;" width="42.641" height="31.843"/>
				
					<rect x="191.001" y="137.984" style="fill:none;stroke:#70588A;stroke-width:0.75;stroke-miterlimit:10;" width="42.641" height="31.843"/>
				
					<rect x="237.449" y="137.984" style="fill:none;stroke:#70588A;stroke-width:0.75;stroke-miterlimit:10;" width="42.641" height="31.843"/>
				
					<rect x="283.897" y="137.984" style="fill:none;stroke:#70588A;stroke-width:0.75;stroke-miterlimit:10;" width="42.641" height="31.843"/>
				<rect x="330.345" y="137.984" style="fill:#5CC9BF;" width="42.641" height="31.843"/>
				
					<rect x="376.793" y="137.984" style="fill:none;stroke:#70588A;stroke-width:0.75;stroke-miterlimit:10;" width="42.641" height="31.843"/>
			</g>
			<g>
				
					<rect x="98.104" y="174.187" style="fill:none;stroke:#70588A;stroke-width:0.75;stroke-miterlimit:10;" width="42.641" height="31.843"/>
				
					<rect x="144.552" y="174.187" style="fill:none;stroke:#70588A;stroke-width:0.75;stroke-miterlimit:10;" width="42.641" height="31.843"/>
				<rect x="191.001" y="174.187" style="fill:#5CC9BF;" width="42.641" height="31.843"/>
				
					<rect x="237.449" y="174.187" style="fill:none;stroke:#70588A;stroke-width:0.75;stroke-miterlimit:10;" width="42.641" height="31.843"/>
				
					<rect x="283.897" y="174.187" style="fill:none;stroke:#70588A;stroke-width:0.75;stroke-miterlimit:10;" width="42.641" height="31.843"/>
				<rect x="330.345" y="174.187" style="fill:#5CC9BF;" width="42.641" height="31.843"/>
				
					<rect x="376.793" y="174.187" style="fill:none;stroke:#70588A;stroke-width:0.75;stroke-miterlimit:10;" width="42.641" height="31.843"/>
			</g>
			<g>
				
					<rect x="98.104" y="210.39" style="fill:none;stroke:#70588A;stroke-width:0.75;stroke-miterlimit:10;" width="42.641" height="31.843"/>
				
					<rect x="144.552" y="210.39" style="fill:none;stroke:#70588A;stroke-width:0.75;stroke-miterlimit:10;" width="42.641" height="31.843"/>
				
					<rect x="191.001" y="210.39" style="fill:none;stroke:#70588A;stroke-width:0.75;stroke-miterlimit:10;" width="42.641" height="31.843"/>
				<rect x="237.449" y="210.39" style="fill:#C46345;" width="42.641" height="31.843"/>
				
					<rect x="283.897" y="210.39" style="fill:none;stroke:#70588A;stroke-width:0.75;stroke-miterlimit:10;" width="42.641" height="31.843"/>
				
					<rect x="330.345" y="210.39" style="fill:none;stroke:#70588A;stroke-width:0.75;stroke-miterlimit:10;" width="42.641" height="31.843"/>
				
					<rect x="376.793" y="210.39" style="fill:none;stroke:#70588A;stroke-width:0.75;stroke-miterlimit:10;" width="42.641" height="31.843"/>
			</g>
			<g>
				
					<rect x="98.104" y="246.593" style="fill:none;stroke:#70588A;stroke-width:0.75;stroke-miterlimit:10;" width="42.641" height="31.843"/>
				
					<rect x="144.552" y="246.593" style="fill:none;stroke:#70588A;stroke-width:0.75;stroke-miterlimit:10;" width="42.641" height="31.843"/>
				
					<rect x="191.001" y="246.593" style="fill:none;stroke:#70588A;stroke-width:0.75;stroke-miterlimit:10;" width="42.641" height="31.843"/>
				
					<rect x="237.449" y="246.593" style="fill:none;stroke:#70588A;stroke-width:0.75;stroke-miterlimit:10;" width="42.641" height="31.843"/>
				
					<rect x="283.897" y="246.593" style="fill:none;stroke:#70588A;stroke-width:0.75;stroke-miterlimit:10;" width="42.641" height="31.843"/>
				
					<rect x="330.345" y="246.593" style="fill:none;stroke:#70588A;stroke-width:0.75;stroke-miterlimit:10;" width="42.641" height="31.843"/>
			</g>
			<path style="fill:#70588A;" d="M294.956,107.526c-0.637-1.476-2.16-2.569-3.789-2.354c-0.351,0.046-0.628,0.265-0.672,0.61
				c-0.048-0.003-0.099-0.003-0.155,0.013c-1.378,0.399-2.312,1.793-2.221,3.235c0.084,1.33,0.909,2.63,2.118,3.19
				c1.322,0.613,2.828,0.254,3.868-0.741C295.175,110.457,295.549,108.901,294.956,107.526z M293.588,110.426
				c-0.598,0.774-1.622,1.251-2.584,0.98c-0.911-0.257-1.606-1.082-1.833-1.995c-0.275-1.105,0.304-2.393,1.398-2.775
				c0.102-0.036,0.169-0.1,0.217-0.173c0.158,0.097,0.36,0.13,0.567,0.099c0.377-0.057,0.86,0.049,1.244,0.224
				c0.433,0.197,0.84,0.499,1.119,0.893C294.313,108.52,294.204,109.629,293.588,110.426z"/>
			<path style="fill:#70588A;" d="M343.595,108.154c-0.469-0.85-1.273-1.641-2.008-2.259c-0.867-0.728-1.797-1.197-2.944-0.961
				c-0.275,0.057-0.412,0.27-0.439,0.504c-1.161,0.23-2.207,0.964-2.708,2.106c-0.788,1.796-0.189,3.67,1.198,4.962
				c0.709,0.661,1.542,1.179,2.52,1.269c0.842,0.078,1.703-0.196,2.413-0.645C343.203,112.133,344.62,110.013,343.595,108.154z
				 M342.51,109.965c-0.218,0.636-0.693,1.205-1.184,1.649c-0.452,0.409-1.036,0.744-1.647,0.816
				c-0.625,0.073-1.191-0.164-1.696-0.518c-1.091-0.764-1.911-1.993-1.601-3.379c0.317-1.414,1.715-2.404,3.144-2.201
				c0.042,0.006,0.079-0.003,0.117-0.006c0.952,0.33,1.788,1.202,2.39,1.922C342.454,108.749,342.735,109.308,342.51,109.965z"/>
			<path style="fill:#70588A;" d="M387.879,106.241c-0.384-0.761-1.083-1.35-1.848-1.687c-0.982-0.432-2.107-0.493-3.131-0.162
				c-1.13,0.365-2.065,1.036-2.867,1.907c-0.192,0.209-0.171,0.484-0.042,0.679c-0.182,0.505-0.257,1.06-0.168,1.633
				c0.29,1.868,1.981,3.125,3.79,3.165c1.757,0.038,3.567-0.991,4.295-2.64C388.323,108.195,388.347,107.169,387.879,106.241z
				 M384.228,110.346c-1.177,0.248-2.402-0.23-2.988-1.318c-0.396-0.737-0.315-1.621,0.101-2.281c1.026-0.589,2.207-1.136,3.33-0.98
				c1.052,0.146,2.163,0.991,2.069,2.124C386.633,109.183,385.392,110.101,384.228,110.346z"/>
			<g>
				<path style="fill:#70588A;" d="M389.065,143.145c-0.689-0.511-1.593-0.716-2.438-0.571c-0.067-0.075-0.156-0.129-0.27-0.094
					c-1.621,0.493-3.396,1.178-4.168,2.841c-0.719,1.547-0.238,3.409,0.943,4.583c1.289,1.281,3.169,1.436,4.764,0.674
					c1.673-0.799,2.768-2.588,2.688-4.465C390.534,144.925,390.018,143.851,389.065,143.145z M387.396,149.299
					c-1.035,0.594-2.343,0.613-3.281-0.183c-0.882-0.749-1.377-2.035-0.972-3.165c0.256-0.714,0.793-1.258,1.388-1.697
					c0.32-0.236,0.647-0.452,0.982-0.654c0.004,0.021-0.002,0.039,0.004,0.061c0.105,0.387,0.543,0.667,0.935,0.537
					c1.276-0.424,2.433,0.632,2.625,1.881C389.282,147.403,388.51,148.66,387.396,149.299z"/>
				<path style="fill:#70588A;" d="M342.369,145.565c-0.545-1.421-1.968-2.473-3.445-2.575c0.197-0.221,0.191-0.619-0.178-0.697
					c-2.067-0.438-3.754,1.204-4.936,2.703c-0.689,0.874-1.251,1.996-0.686,3.089c0.247,0.478,0.655,0.874,1.017,1.262
					c0.367,0.393,0.75,0.767,1.175,1.096c1.569,1.216,3.812,1.419,5.475,0.244C342.368,149.574,343.072,147.399,342.369,145.565z
					 M340.443,149.278c-0.99,0.992-2.633,1.164-3.837,0.487c-0.716-0.403-1.284-1.014-1.837-1.614
					c-0.245-0.266-0.561-0.556-0.632-0.931c-0.074-0.389,0.128-0.777,0.322-1.096c0.465-0.766,1.105-1.485,1.773-2.075
					c0.282-0.249,0.577-0.481,0.894-0.655c-0.481,0.331-0.096,1.064,0.458,0.958c1.251-0.24,2.702,0.161,3.372,1.325
					C341.607,146.808,341.352,148.367,340.443,149.278z"/>
				<path style="fill:#70588A;" d="M297.273,144.723c-0.281-0.538-0.732-0.978-1.156-1.4c-0.4-0.396-0.812-0.783-1.278-1.1
					c-0.919-0.625-2.116-0.864-3.131-0.38c0.078-0.328-0.141-0.713-0.538-0.562c-1.879,0.714-3.826,1.989-4.138,4.168
					c-0.292,2.043,1.191,3.708,2.961,4.441c1.648,0.683,3.589,0.578,5.16-0.268C296.832,148.719,298.276,146.641,297.273,144.723z
					 M294.509,148.386c-1.074,0.608-2.404,0.748-3.589,0.43c-1.256-0.337-2.672-1.339-2.728-2.776
					c-0.071-1.827,1.48-3.039,2.975-3.727c-0.245,0.579,0.361,1.375,1.021,0.952c0.627-0.401,1.342-0.16,1.919,0.224
					c0.622,0.415,1.255,1.026,1.716,1.619C296.787,146.346,295.612,147.762,294.509,148.386z"/>
				<path style="fill:#70588A;" d="M249.874,144.344c-0.85-1.768-2.706-2.35-4.537-2.319c0.094-0.231-0.029-0.574-0.324-0.537
					c-2.051,0.255-4.036,1.33-5.018,3.243c-0.944,1.839-0.176,3.959,1.434,5.117c1.807,1.3,4.305,0.931,6.125-0.134
					C249.363,148.656,250.902,146.481,249.874,144.344z M247.222,148.127c-1.247,0.938-3.062,1.482-4.558,0.855
					c-1.267-0.531-2.213-2.045-1.734-3.42c0.309-0.887,0.976-1.66,1.78-2.25c0.1,0.189,0.285,0.333,0.55,0.338
					c1.61,0.027,3.607-0.383,4.854,0.933C249.233,145.763,248.301,147.317,247.222,148.127z"/>
				<path style="fill:#70588A;" d="M202.969,143.771c-1.558-2.002-4.437-2.097-6.494-0.874c-0.084,0.05-0.139,0.113-0.195,0.176
					c-0.997,0.487-1.836,1.21-2.166,2.38c-0.593,2.099,0.78,4.233,2.697,4.982c1.93,0.755,4.401,0.309,5.918-1.127
					C204.297,147.824,204.254,145.423,202.969,143.771z M201.878,147.944c-0.926,1.148-2.698,1.558-4.083,1.24
					c-1.424-0.327-2.654-1.544-2.522-3.11c0.066-0.785,0.52-1.389,1.116-1.869c0.225,0.201,0.55,0.282,0.892,0.089
					c1.226-0.691,3.029-0.841,4.136,0.178C202.362,145.342,202.737,146.879,201.878,147.944z"/>
				<path style="fill:#70588A;" d="M157.872,145.357c-0.695-0.89-1.751-1.499-2.833-1.767c-1.154-0.287-2.482-0.4-3.596,0.074
					c-0.204,0.087-0.35,0.26-0.419,0.453c-1.311,0.667-2.411,1.738-2.975,3.14c-1.008,2.507,1.111,4.572,3.265,5.401
					c2.129,0.819,4.788,0.466,6.293-1.379C158.991,149.581,159.263,147.135,157.872,145.357z M156.668,149.481
					c-0.736,1.447-2.277,2.044-3.831,1.817c-1.339-0.195-3.708-1.287-3.44-3.007c0.145-0.931,0.87-1.806,1.548-2.409
					c0.374-0.333,0.792-0.594,1.237-0.793c1.268,0.215,2.587,0.237,3.68,0.943C157.018,146.78,157.3,148.237,156.668,149.481z"/>
				<path style="fill:#70588A;" d="M111.489,144.951c-0.554-0.971-1.63-1.532-2.733-1.455c-0.751,0.053-1.448,0.348-2.076,0.756
					c-1.6,0.265-2.947,1.308-3.578,2.868c-0.399,0.988-0.453,2.163,0.037,3.13c0.422,0.832,1.257,1.371,2.14,1.581
					c1.846,0.438,3.88-0.293,5.201-1.631C111.797,148.868,112.475,146.68,111.489,144.951z M109.793,148.876
					c-0.842,1.072-2.227,1.752-3.583,1.708c-0.587-0.019-1.22-0.184-1.644-0.618c-0.494-0.506-0.538-1.32-0.399-1.983
					c0.18-0.86,0.721-1.684,1.437-2.255c0.146,0.237,0.442,0.38,0.734,0.203c0.977-0.594,2.833-1.599,3.782-0.434
					C110.916,146.474,110.496,147.981,109.793,148.876z"/>
			</g>
			<g>
				<path style="fill:#70588A;" d="M389.065,215.108c-0.689-0.511-1.593-0.716-2.438-0.571c-0.067-0.075-0.156-0.129-0.27-0.094
					c-1.621,0.493-3.396,1.178-4.168,2.841c-0.719,1.547-0.238,3.409,0.943,4.583c1.289,1.281,3.169,1.436,4.764,0.674
					c1.673-0.799,2.768-2.588,2.688-4.465C390.534,216.888,390.018,215.814,389.065,215.108z M387.396,221.262
					c-1.035,0.594-2.343,0.614-3.281-0.183c-0.882-0.749-1.377-2.035-0.972-3.165c0.256-0.714,0.793-1.258,1.388-1.697
					c0.32-0.236,0.647-0.452,0.982-0.654c0.004,0.021-0.002,0.039,0.004,0.061c0.105,0.387,0.543,0.668,0.935,0.537
					c1.276-0.424,2.433,0.632,2.625,1.881C389.282,219.365,388.51,220.622,387.396,221.262z"/>
				<path style="fill:#70588A;" d="M342.369,217.435c-0.545-1.421-1.968-2.473-3.445-2.575c0.197-0.221,0.191-0.619-0.178-0.697
					c-3.431-0.728-7.169,4.308-4.604,7.054c0.367,0.393,0.75,0.767,1.175,1.096c1.569,1.216,3.812,1.419,5.475,0.244
					C342.368,221.443,343.072,219.268,342.369,217.435z M340.443,221.148c-0.99,0.992-2.633,1.164-3.837,0.487
					c-1.226-0.69-2.423-2.024-1.958-3.543c0.835-2.727,4.933-2.937,6.309-0.546C341.607,218.677,341.352,220.236,340.443,221.148z"
					/>
				<path style="fill:#70588A;" d="M297.273,217.645c-0.281-0.538-0.732-0.978-1.156-1.4c-0.4-0.396-0.812-0.784-1.278-1.1
					c-0.919-0.625-2.116-0.864-3.131-0.38c0.078-0.328-0.141-0.713-0.538-0.562c-1.879,0.714-3.826,1.989-4.138,4.168
					c-0.292,2.043,1.191,3.708,2.961,4.441c1.648,0.683,3.589,0.578,5.16-0.268C296.832,221.642,298.276,219.563,297.273,217.645z
					 M294.509,221.308c-1.074,0.608-2.404,0.748-3.589,0.43c-1.256-0.337-2.672-1.339-2.728-2.776
					c-0.071-1.827,1.48-3.039,2.975-3.727c-0.245,0.579,0.361,1.375,1.021,0.952c0.627-0.401,1.342-0.16,1.919,0.224
					c0.622,0.415,1.255,1.026,1.716,1.619C296.787,219.268,295.612,220.684,294.509,221.308z"/>
				<path style="fill:#70588A;" d="M249.874,216.978c-0.85-1.768-2.706-2.35-4.537-2.319c0.094-0.231-0.029-0.574-0.324-0.537
					c-2.051,0.255-4.036,1.33-5.018,3.243c-0.944,1.839-0.176,3.959,1.434,5.117c1.807,1.3,4.305,0.931,6.125-0.134
					C249.363,221.29,250.902,219.115,249.874,216.978z M247.222,220.761c-1.247,0.938-3.062,1.482-4.558,0.855
					c-1.267-0.531-2.213-2.045-1.734-3.42c0.309-0.887,0.976-1.66,1.78-2.25c0.1,0.189,0.285,0.333,0.55,0.338
					c1.61,0.027,3.607-0.383,4.854,0.933C249.233,218.397,248.301,219.951,247.222,220.761z"/>
				<path style="fill:#70588A;" d="M202.969,216.039c-1.558-2.002-4.437-2.097-6.494-0.873c-0.084,0.05-0.139,0.113-0.195,0.176
					c-0.997,0.487-1.836,1.21-2.166,2.38c-0.593,2.099,0.78,4.233,2.697,4.983c1.93,0.755,4.401,0.309,5.918-1.128
					C204.297,220.091,204.254,217.69,202.969,216.039z M201.878,220.211c-0.926,1.148-2.698,1.558-4.083,1.24
					c-1.424-0.327-2.654-1.544-2.522-3.11c0.066-0.785,0.52-1.389,1.116-1.869c0.225,0.201,0.55,0.282,0.892,0.089
					c1.226-0.69,3.029-0.841,4.136,0.178C202.362,217.609,202.737,219.146,201.878,220.211z"/>
				<path style="fill:#70588A;" d="M157.872,215.865c-0.695-0.89-1.751-1.499-2.833-1.767c-1.154-0.287-2.482-0.4-3.596,0.074
					c-0.204,0.087-0.35,0.26-0.419,0.453c-1.311,0.667-2.411,1.738-2.975,3.14c-1.008,2.507,1.111,4.572,3.265,5.401
					c2.129,0.819,4.788,0.466,6.293-1.379C158.991,220.09,159.263,217.644,157.872,215.865z M156.668,219.99
					c-0.736,1.447-2.277,2.044-3.831,1.817c-1.339-0.195-3.708-1.287-3.44-3.007c0.145-0.931,0.87-1.806,1.548-2.409
					c0.374-0.333,0.792-0.594,1.237-0.793c1.268,0.215,2.587,0.237,3.68,0.943C157.018,217.288,157.3,218.746,156.668,219.99z"/>
				<path style="fill:#70588A;" d="M111.489,215.943c-0.554-0.971-1.63-1.533-2.733-1.455c-0.751,0.053-1.448,0.348-2.076,0.756
					c-1.6,0.265-2.947,1.308-3.578,2.868c-0.399,0.988-0.453,2.163,0.037,3.13c0.422,0.832,1.257,1.371,2.14,1.581
					c1.846,0.438,3.88-0.293,5.201-1.631C111.797,219.86,112.475,217.672,111.489,215.943z M109.793,219.868
					c-0.842,1.071-2.227,1.752-3.583,1.708c-0.587-0.019-1.22-0.184-1.644-0.618c-0.494-0.506-0.538-1.32-0.399-1.984
					c0.18-0.86,0.721-1.684,1.437-2.255c0.146,0.237,0.442,0.38,0.734,0.203c0.977-0.594,2.833-1.599,3.782-0.434
					C110.916,217.466,110.496,218.973,109.793,219.868z"/>
			</g>
			<g>
				<path style="fill:#70588A;" d="M342.369,253.513c-0.834-2.176-3.881-3.398-6.017-2.665c-1.013,0.347-1.876,1.119-2.342,2.093
					c-0.307,0.643-0.444,1.357-0.504,2.068c-0.138,1.613,0.6,2.443,1.811,3.382c1.569,1.216,3.812,1.419,5.475,0.244
					C342.368,257.522,343.072,255.347,342.369,253.513z M340.443,257.226c-0.99,0.992-2.633,1.164-3.837,0.487
					c-1.856-1.045-3.118-3.499-0.856-4.875c1.565-0.952,4.181-0.996,5.206,0.786C341.607,254.756,341.352,256.315,340.443,257.226z"
					/>
				<path style="fill:#70588A;" d="M297.273,252.671c-0.281-0.538-0.732-0.978-1.156-1.4c-0.4-0.396-0.812-0.784-1.278-1.1
					c-0.919-0.625-2.116-0.864-3.131-0.38c0.078-0.328-0.141-0.713-0.538-0.562c-1.879,0.714-3.826,1.989-4.138,4.168
					c-0.292,2.043,1.191,3.708,2.961,4.441c1.648,0.683,3.589,0.578,5.16-0.268C296.832,256.667,298.276,254.589,297.273,252.671z
					 M294.509,256.334c-1.074,0.608-2.404,0.748-3.589,0.43c-1.256-0.337-2.672-1.339-2.728-2.776
					c-0.071-1.827,1.48-3.039,2.975-3.727c-0.245,0.579,0.361,1.375,1.021,0.952c0.627-0.401,1.342-0.16,1.919,0.224
					c0.622,0.415,1.255,1.026,1.716,1.619C296.787,254.294,295.612,255.71,294.509,256.334z"/>
				<path style="fill:#70588A;" d="M249.874,252.292c-0.85-1.768-2.706-2.35-4.537-2.319c0.094-0.232-0.029-0.574-0.324-0.537
					c-2.051,0.255-4.036,1.33-5.018,3.243c-0.944,1.839-0.176,3.959,1.434,5.117c1.807,1.3,4.305,0.931,6.125-0.134
					C249.363,256.604,250.902,254.43,249.874,252.292z M247.222,256.075c-1.247,0.938-3.062,1.482-4.558,0.855
					c-1.267-0.531-2.213-2.045-1.734-3.42c0.309-0.887,0.976-1.66,1.78-2.25c0.1,0.189,0.285,0.333,0.55,0.338
					c1.61,0.027,3.607-0.383,4.854,0.933C249.233,253.711,248.301,255.265,247.222,256.075z"/>
				<path style="fill:#70588A;" d="M202.969,251.719c-1.558-2.002-4.437-2.097-6.494-0.874c-0.084,0.05-0.139,0.113-0.195,0.176
					c-0.997,0.487-1.836,1.21-2.166,2.38c-0.593,2.099,0.78,4.233,2.697,4.983c1.93,0.755,4.401,0.309,5.918-1.128
					C204.297,255.772,204.254,253.371,202.969,251.719z M201.878,255.892c-0.926,1.148-2.698,1.558-4.083,1.24
					c-1.424-0.327-2.654-1.544-2.522-3.11c0.066-0.785,0.52-1.389,1.116-1.869c0.225,0.201,0.55,0.282,0.892,0.089
					c1.226-0.69,3.029-0.841,4.136,0.178C202.362,253.29,202.737,254.827,201.878,255.892z"/>
				<path style="fill:#70588A;" d="M157.872,253.305c-0.695-0.89-1.751-1.498-2.833-1.767c-1.154-0.286-2.482-0.4-3.596,0.074
					c-0.204,0.086-0.35,0.26-0.419,0.453c-1.311,0.667-2.411,1.738-2.975,3.14c-1.008,2.507,1.111,4.572,3.265,5.401
					c2.129,0.819,4.788,0.466,6.293-1.379C158.991,257.529,159.263,255.084,157.872,253.305z M156.668,257.429
					c-0.736,1.447-2.277,2.044-3.831,1.817c-1.339-0.195-3.708-1.287-3.44-3.007c0.145-0.931,0.87-1.806,1.548-2.409
					c0.374-0.333,0.792-0.594,1.237-0.793c1.268,0.215,2.587,0.237,3.68,0.943C157.018,254.728,157.3,256.185,156.668,257.429z"/>
				<path style="fill:#70588A;" d="M111.489,252.899c-0.554-0.971-1.63-1.533-2.733-1.455c-0.751,0.053-1.448,0.348-2.076,0.756
					c-1.6,0.265-2.947,1.308-3.578,2.868c-0.399,0.988-0.453,2.163,0.037,3.13c0.422,0.832,1.257,1.371,2.14,1.581
					c1.846,0.438,3.88-0.293,5.201-1.631C111.797,256.816,112.475,254.628,111.489,252.899z M109.793,256.824
					c-0.842,1.071-2.227,1.752-3.583,1.708c-0.587-0.019-1.22-0.184-1.644-0.618c-0.494-0.506-0.538-1.32-0.399-1.984
					c0.18-0.86,0.721-1.684,1.437-2.255c0.146,0.237,0.442,0.38,0.734,0.203c0.977-0.594,2.833-1.599,3.782-0.434
					C110.916,254.422,110.496,255.929,109.793,256.824z"/>
			</g>
			<g>
				<path style="fill:#70588A;" d="M389.065,178.895c-0.689-0.511-1.593-0.716-2.438-0.571c-0.067-0.075-0.156-0.129-0.27-0.094
					c-1.621,0.493-3.396,1.178-4.168,2.84c-0.719,1.547-0.238,3.409,0.943,4.583c1.289,1.281,3.169,1.436,4.764,0.674
					c1.673-0.799,2.768-2.588,2.688-4.465C390.534,180.676,390.018,179.602,389.065,178.895z M387.396,185.049
					c-1.035,0.594-2.343,0.614-3.281-0.183c-0.882-0.749-1.377-2.035-0.972-3.165c0.256-0.715,0.793-1.258,1.388-1.697
					c0.32-0.236,0.647-0.452,0.982-0.654c0.004,0.021-0.002,0.04,0.004,0.061c0.105,0.387,0.543,0.667,0.935,0.537
					c1.276-0.424,2.433,0.632,2.625,1.881C389.282,183.153,388.51,184.41,387.396,185.049z"/>
				<path style="fill:#70588A;" d="M297.273,181.433c-0.281-0.538-0.732-0.978-1.156-1.4c-0.4-0.396-0.812-0.784-1.278-1.1
					c-0.919-0.625-2.116-0.864-3.131-0.38c0.078-0.328-0.141-0.712-0.538-0.562c-1.879,0.714-3.826,1.989-4.138,4.168
					c-0.292,2.043,1.191,3.708,2.961,4.441c1.648,0.683,3.589,0.578,5.16-0.268C296.832,185.429,298.276,183.351,297.273,181.433z
					 M294.509,185.096c-1.074,0.608-2.404,0.748-3.589,0.43c-1.256-0.337-2.672-1.339-2.728-2.776
					c-0.071-1.827,1.48-3.039,2.975-3.727c-0.245,0.579,0.361,1.375,1.021,0.952c0.627-0.401,1.342-0.16,1.919,0.224
					c0.622,0.414,1.255,1.026,1.716,1.619C296.787,183.056,295.612,184.472,294.509,185.096z"/>
				<path style="fill:#70588A;" d="M249.874,180.766c-0.85-1.768-2.706-2.35-4.537-2.319c0.094-0.232-0.029-0.574-0.324-0.537
					c-2.051,0.255-4.036,1.33-5.018,3.243c-0.944,1.839-0.176,3.959,1.434,5.117c1.807,1.3,4.305,0.931,6.125-0.134
					C249.363,185.077,250.902,182.903,249.874,180.766z M247.222,184.548c-1.247,0.937-3.062,1.482-4.558,0.855
					c-1.267-0.532-2.213-2.045-1.734-3.42c0.309-0.887,0.976-1.66,1.78-2.25c0.1,0.189,0.285,0.333,0.55,0.338
					c1.61,0.027,3.607-0.383,4.854,0.933C249.233,182.184,248.301,183.738,247.222,184.548z"/>
				<path style="fill:#70588A;" d="M202.969,179.826c-1.558-2.002-4.437-2.097-6.494-0.873c-0.084,0.05-0.139,0.113-0.195,0.176
					c-0.997,0.487-1.836,1.21-2.166,2.38c-0.593,2.099,0.78,4.233,2.697,4.982c1.93,0.755,4.401,0.309,5.918-1.128
					C204.297,183.879,204.254,181.478,202.969,179.826z M201.878,183.999c-0.926,1.148-2.698,1.558-4.083,1.24
					c-1.424-0.327-2.654-1.544-2.522-3.11c0.066-0.785,0.52-1.389,1.116-1.869c0.225,0.201,0.55,0.282,0.892,0.089
					c1.226-0.691,3.029-0.841,4.136,0.178C202.362,181.397,202.737,182.934,201.878,183.999z"/>
				<path style="fill:#70588A;" d="M157.872,179.653c-0.695-0.89-1.751-1.498-2.833-1.767c-1.154-0.286-2.482-0.4-3.596,0.074
					c-0.204,0.087-0.35,0.26-0.419,0.453c-1.311,0.667-2.411,1.738-2.975,3.14c-1.008,2.507,1.111,4.572,3.265,5.401
					c2.129,0.819,4.788,0.466,6.293-1.379C158.991,183.878,159.263,181.432,157.872,179.653z M156.668,183.777
					c-0.736,1.447-2.277,2.044-3.831,1.817c-1.339-0.195-3.708-1.287-3.44-3.007c0.145-0.931,0.87-1.806,1.548-2.409
					c0.374-0.333,0.792-0.594,1.237-0.793c1.268,0.215,2.587,0.237,3.68,0.943C157.018,181.076,157.3,182.533,156.668,183.777z"/>
				<path style="fill:#70588A;" d="M111.489,179.731c-0.554-0.971-1.63-1.532-2.733-1.455c-0.751,0.053-1.448,0.348-2.076,0.756
					c-1.6,0.265-2.947,1.308-3.578,2.868c-0.399,0.988-0.453,2.163,0.037,3.13c0.422,0.832,1.257,1.371,2.14,1.581
					c1.846,0.438,3.88-0.293,5.201-1.631C111.797,183.648,112.475,181.459,111.489,179.731z M109.793,183.656
					c-0.842,1.071-2.227,1.752-3.583,1.708c-0.587-0.019-1.22-0.184-1.644-0.618c-0.494-0.506-0.538-1.32-0.399-1.984
					c0.18-0.86,0.721-1.684,1.437-2.255c0.146,0.237,0.442,0.38,0.734,0.203c0.977-0.594,2.833-1.599,3.782-0.434
					C110.916,181.254,110.496,182.761,109.793,183.656z"/>
				<path style="fill:#70588A;" d="M340.201,179.229c-0.426-0.281-0.934-0.444-1.43-0.533c-0.266-0.048-0.539-0.099-0.808-0.074
					c-0.119,0.012-0.236,0.04-0.354,0.06c-0.1,0.014-0.199,0.032-0.298,0.05c-0.081,0.016-0.163,0.025-0.244,0.042
					c-0.015,0.003-0.025,0.012-0.039,0.016c-1.105,0.264-2.102,0.845-2.741,1.86c-0.456,0.725-0.612,1.605-0.533,2.453
					c0.08,0.857,0.261,1.896,0.912,2.511c1.242,1.174,3.269,0.869,4.622,0.084c1.399-0.812,2.326-2.444,2.248-4.084
					C341.487,180.603,341.042,179.783,340.201,179.229z M339.236,184.713c-0.95,0.784-2.591,1.077-3.673,0.383
					c-0.574-0.369-0.695-1.115-0.784-1.748c-0.095-0.673-0.103-1.389,0.206-2.01c0.368-0.74,1.052-1.306,1.816-1.676
					c0.064,0.083,0.15,0.149,0.265,0.175c0.379,0.086,0.757,0.2,1.145,0.229c0.346,0.026,0.671,0.054,1.005,0.157
					c0.563,0.174,1.069,0.498,1.274,1.083C340.905,182.494,340.133,183.973,339.236,184.713z"/>
			</g>
		</g>
		<g>
			<g>
				<path style="fill:#5CC9BF;" d="M357.854,262.254c2.17,2.741,4.805,5.061,7.144,7.65c2.477,2.742,4.386,5.933,6.859,8.676
					c2.158,2.394,4.731,4.405,7.558,5.949c1.998,1.091,6.642,3.707,9.002,3.12c4.586-1.141,1.149-8.864-0.288-11.406
					c-1.724-3.05-4.146-5.69-6.715-8.047c-2.677-2.457-5.591-4.639-8.476-6.842c-3.24-2.473-6.48-4.947-9.72-7.42
					c-0.783-0.598-1.552-1.219-2.357-1.788c-0.666-0.47-1.396-0.867-2.219-0.954c-1.413-0.15-2.695,0.778-3.373,1.962
					C353.498,256.249,355.96,259.862,357.854,262.254z"/>
				<path style="fill:#5CC9BF;" d="M404.651,263.846c-0.653-3.531-2.088-6.871-2.911-10.367c-1.09-4.628-1.09-9.444-1.941-14.121
					c-0.851-4.677-2.764-9.468-6.652-12.204c-1.073-0.756-2.305-1.342-3.614-1.441c-2.358-0.179-4.616,1.285-5.946,3.24
					c-1.33,1.955-1.875,4.335-2.2,6.677c-1.283,9.236,0.53,18.876,5.082,27.015c1.421,2.539,3.099,4.938,4.345,7.567
					c1.649,3.481,2.506,7.313,2.686,11.161c0.078,1.671,0.045,3.413,0.77,4.921c0.706,1.467,3.261,3.697,5.028,2.759
					c1.577-0.837,2.661-5.783,3.221-7.385C404.511,275.978,405.763,269.859,404.651,263.846z"/>
				<path style="fill:#5CC9BF;" d="M422.603,264.167c0.288-1.926,0.461-3.836,0.502-5.713c0.056-2.605-0.799-5.948-3.39-6.223
					c-1.303-0.139-2.527,0.634-3.511,1.5c-4.649,4.091-6.329,10.511-7.776,16.533c-1.236,5.144-2.503,10.281-3.709,15.433
					c-0.888,3.793-2.204,8.856-0.172,12.474c0.209,0.373,0.469,0.742,0.85,0.936c1.072,0.546,2.229-0.54,2.917-1.527
					C414.781,288.301,420.843,275.926,422.603,264.167z"/>
				<path style="fill:#222221;" d="M415.292,269.934c-0.017-0.039-0.072-0.037-0.098-0.013c-0.614,0.563-0.682,1.436-0.887,2.223
					c-0.236,0.91-0.483,1.817-0.726,2.725c-0.527,1.968-1.113,3.92-1.758,5.853c-1.315,3.946-2.932,7.767-4.561,11.591
					c-2.937,6.894-5.832,14.069-5.358,21.709c0.041,0.666,1.083,0.67,1.041,0c-0.5-7.995,2.758-15.442,5.822-22.635
					c1.52-3.567,2.964-7.156,4.153-10.85c0.624-1.938,1.2-3.896,1.699-5.87c0.23-0.912,0.441-1.831,0.621-2.754
					C415.376,271.222,415.572,270.591,415.292,269.934z"/>
				<path style="fill:#222221;" d="M397.996,304.061c-0.131-5.405,0.03-10.807,0.41-16.219c0.541-7.698,1.188-15.472-0.107-23.132
					c-0.682-4.034-1.907-7.951-3.939-11.512c-0.284-0.497-1.029-0.057-0.765,0.447c4.556,8.707,4.816,18.548,4.25,28.144
					c-0.295,5.002-0.749,9.993-0.86,15.005c-0.033,1.461-0.036,2.922-0.023,4.383c-0.212-0.547-0.427-1.09-0.647-1.625
					c-1.483-3.606-3.279-7.071-5.337-10.383c-4.283-6.892-9.529-13.082-15.103-18.956c-0.381-0.402-0.97,0.197-0.605,0.604
					c5.282,5.889,10.317,12.087,14.455,18.844c2.043,3.337,3.889,6.812,5.37,10.437c0.807,1.975,1.434,3.98,2.002,6.004
					c0.089,2.049,0.208,4.098,0.381,6.142c0.051,0.603,0.999,0.609,0.948,0c-0.045-0.535-0.078-1.071-0.116-1.606
					c0.055,0.209,0.11,0.418,0.165,0.627c0.157,0.591,1.162,0.495,1.099-0.149C399.343,308.74,398.753,306.37,397.996,304.061z"/>
			</g>
			<g>
				<g>
					<g>
						<g>
							<path style="fill:#C46345;" d="M410.667,302.419c-1.725,7.938-2.897,16.262-1.662,24.251
								c-2.778,0.016-16.794,0.091-21.307,0.042c0.055-0.695,0.108-1.391,0.144-2.087c0.255-4.961-0.061-9.942-1.542-14.702
								c-0.36-1.158-1.102-4.906-1.575-6.028l0.091-1.475H410.667z"/>
						</g>
					</g>
				</g>
			</g>
		</g>
		<path style="fill:#70588A;" d="M230.41,330.089c1.485-0.038,2.971-0.047,4.456-0.071c1.912,0.21,3.826,0.397,5.75,0.496
			c3.058,0.157,6.123,0.115,9.185,0.126c3.155,0.012,6.311,0.023,9.466,0.035c-0.109,0.402-0.199,0.809-0.292,1.195
			c-0.425,1.77-0.836,3.539-1.214,5.32c-1.443,6.799-2.888,13.598-4.329,20.397c-2.918,13.767-5.604,27.587-8.401,41.379
			c-0.79,3.895-1.58,7.789-2.37,11.684c-0.395,1.947-0.79,3.895-1.185,5.842c-0.154,0.761-0.343,1.536-0.512,2.316h5.362
			c0.279-1.47,0.495-2.956,0.778-4.363c0.622-3.084,1.243-6.169,1.865-9.253c1.243-6.169,2.487-12.337,3.73-18.506
			c2.454-12.177,4.931-24.35,7.276-36.549c0.657-3.417,1.314-6.835,1.97-10.252c0.344-1.792,0.693-3.581,0.99-5.382
			c0.135-0.819,0.27-1.639,0.405-2.458c0.054-0.326,0.126-0.661,0.161-0.991c0.001-0.006,0.004-0.011,0.005-0.017
			c0.136-0.09,0.253-0.206,0.346-0.346c1.44,0.005,2.88,0.01,4.319,0.016c12.329,0.051,24.659-0.01,36.988-0.017
			c24.493-0.014,48.987-0.056,73.48-0.111c4.953-0.011,9.907-0.012,14.86-0.014c0.478,3.281,1.478,6.523,2.296,9.719
			c0.903,3.525,1.849,7.037,2.8,10.549c1.901,7.023,3.864,14.029,5.824,21.036c3.965,14.173,7.929,28.346,11.894,42.519
			c0.412,1.473,0.824,2.947,1.237,4.42h4.954c-0.153-0.542-0.307-1.084-0.46-1.626l-1.283-4.535l-2.633-9.309
			c-1.71-6.047-3.42-12.093-5.13-18.14c-3.443-12.173-6.847-24.357-10.391-36.501c-0.973-3.335-1.959-6.664-2.978-9.985
			c-0.829-2.702-1.565-5.501-2.605-8.15c7.774-0.008,15.547-0.03,23.319-0.127c1.334,0.017,1.994-1.02,1.984-2.056
			c0.012-1.036-0.647-2.072-1.984-2.056c-24.654-0.307-49.321-0.161-73.977-0.216c-24.493-0.055-48.987-0.043-73.48-0.057
			c-6.951-0.004-13.902,0.035-20.853,0.06c-3.469,0.013-6.962-0.09-10.426,0.083c-2.281,0.114-4.546,0.326-6.81,0.565
			c-1.463-0.025-2.926-0.052-4.389-0.089C228.21,326.613,228.206,330.145,230.41,330.089z"/>
		<g>
			<g>
				<path style="fill:#F2A888;" d="M206.742,239.155c2.07-0.585,3.729-2.895,4.568-4.816c0.893-2.045,0.728-4.733-0.989-6.159
					c-1.096-0.911-2.623-1.154-4.04-0.999c-4.43,0.483-7.835,4.469-9.054,8.755c-1.219,4.286-0.704,8.849-0.179,13.275
					c0.384,3.236,0.767,6.472,1.151,9.708c0.746,6.288-0.09,12.874-0.094,19.209c0,0.787-0.029,1.611-0.414,2.297
					c-0.71,1.264-2.332,1.622-3.764,1.854c-6.905,1.116-14.027,2.448-21.052,2.199c-6.114-0.216-13.176-2.193-16.05,5.218
					c-1.611,4.153-0.288,9.077,2.632,12.441c2.919,3.365,7.205,5.313,11.575,6.18c4.37,0.867,1.597,1.432,6.048,1.254
					c6.455-0.258,20.249-1.325,26.435-3.184c4.464-1.341,8.777-3.509,12.219-6.689c3.168-2.926,3.954-6.579,4.292-10.82
					c0.713-8.945-2.075-17.88-4.503-26.375c-2.258-7.899-6.667-15.182-8.699-23.025
					C206.797,239.372,206.769,239.263,206.742,239.155z"/>
				<path style="fill:#F2A888;" d="M153.42,283.978c-0.578-0.668-1.27-0.948-2.013-1.061c-2.144-0.326-4.245-0.266-6.342-1.011
					c-0.342-0.122-0.696-0.277-0.906-0.574c-0.218-0.308-0.239-0.71-0.253-1.087c-0.037-1.021-0.073-2.043-0.11-3.064
					c-0.003-0.093-0.007-0.186-0.013-0.28c4.596-1.387,6.45-6.691,6.911-11.668c0.579-6.254-0.061-13.982-5.762-17.822
					c-3.634-2.447-8.546-2.8-12.548-1.018c-4.002,1.782-7,5.6-7.915,9.884c-0.677,3.169,0.404,4.248,0.774,7.456
					c0.313,2.719,0.667,5.449,0.786,8.185c0.137,3.162-0.089,7.252-0.798,9.507c-0.24,0.765-1.189,1.046-1.929,1.396
					c-0.714,0.337-1.928-0.157-2.529,0.503c-2.637,2.899-5.104,5.97-7.971,8.633c6.759,2.834,13.828,4.864,21.051,6.103
					c5.068,0.869,15.3,3.868,18.797-1.523c0.756-1.165,1.145-2.517,1.398-3.89c0.064-0.345,0.119-0.692,0.169-1.038
					C154.563,289.241,155.147,285.976,153.42,283.978z"/>
				<path style="fill:#2C6AA3;" d="M180.21,283.627c-0.072-0.008-0.144-0.017-0.215-0.025c-1.991,0.18-4.023,0.003-6.041-0.122
					c-3.472-0.216-6.946-0.383-10.417-0.608c-6.521-0.422-13.048-1.109-19.534-1.94c-0.776,1.412-1.819,2.621-3.222,3.507
					c-5.04,3.182-12.117,1.246-15.445-3.448c-3.244,0.259-6.474,0.689-9.663,1.345c-4.378,0.9-8.7,2.213-12.696,4.239
					c-3.833,1.944-7.639,4.5-9.82,8.302c-1.309,2.282-2.23,4.935-2.977,7.447c-0.796,2.677-1.298,5.442-1.523,8.225
					c-0.643,7.943,0.971,15.222,2.066,22.999c1.415,10.056,1.837,27.331,11.747,33.177c3.522,2.078,7.748,2.492,11.821,2.86
					c14.285,1.288,29.484,2.369,42.805-2.067c1.311-5.717,2.214-11.491,2.74-17.368c0.463-5.164,0.846-10.337,1.056-15.519
					c0.198-4.879,0.503-9.754,0.669-14.635c0.085-2.501,0.139-5.003,0.12-7.505c-0.013-1.63,11.913-0.443,17.301,0.097
					c1.138-5.358,1.72-10.812,2.16-16.264c0.22-2.727,0.4-5.458,0.599-8.187C181.891,286.06,183.024,283.953,180.21,283.627z"/>
				<path d="M189.121,411.023c-0.173-0.255-0.355-0.504-0.544-0.746c-3.45-4.424-9.41-7.309-14.28-9.909
					c-5.372-2.868-11.397-5.228-17.593-4.871c-5.588,0.323-13.349,4.114-14.506,10.029c-0.13,0.668-0.187,1.382,0.081,2.007
					c0.665,1.555,2.765,1.694,4.456,1.709c7.214,0.064,14.155,2.283,20.886,4.679c3.468,1.235,6.915,2.534,10.421,3.658
					c3.134,1.005,10.749,5.41,12.943,0.837C192.186,415.92,190.512,413.066,189.121,411.023z"/>
				<path style="fill:#C46345;" d="M212.03,359.446c-2.903-4.227-7.915-7.058-13.042-8.098c-15.185-3.08-28.56,4.962-42.744,8.607
					c-5.535,1.422-9.144,0.895-14.554,0.458c-6.859-0.553-13.9,0.122-20.802-0.286c-6.451-0.382-13.431-0.881-19.46,0.896
					c-0.796-0.523-1.59-1.047-2.381-1.566c-6.745-4.425-13.464-8.832-21.922-7.22c-6.65,1.267-13.062,4.639-17.182,10.113
					c-4.376,5.815-3.062,13.409,0.859,19.207c3.246,4.8,8.044,8.333,13.013,11.314c17.141,10.283,35.864,16.585,56.094,15.181
					c3.005-0.208,7.471,0.799,8.784,3.874c0.42,0.985,1.024,1.879,1.508,2.835c0.992,1.958,1.452,5.069,2.935,6.698
					c1.445,1.587,4.406,0.049,5.982-0.645c3.642-1.604,6.764-4.173,10.363-5.81c10.922-4.967,22.373-9.485,32.857-15.345
					c7.016-3.922,13.28-6.925,17.046-14.141c3.365-6.448,6.807-14.588,4.609-21.989C213.556,362.054,212.884,360.69,212.03,359.446z
					"/>
				<path style="fill:#AB563C;" d="M126.662,377.418c4.024,1.779,8.048,3.56,12.072,5.339c2.128,0.941,6.876,2.473,5.73,5.267
					c-0.994,2.424-6.19,4.277-8.421,5.128c-1.486,0.567-3.263,1.296-3.523,2.865c-0.035,0.211-0.03,0.421-0.008,0.63
					c2.288-0.81,4.573-1.632,6.834-2.516c0.537-0.21,1.074-0.426,1.61-0.644c2.035-1.08,4.059-2.182,6.065-3.317
					c14.952-8.461,28.99-18.436,41.991-29.649c0.481-0.475,0.967-0.944,1.453-1.415c-2.213,0.085-4.381,1.52-6.388,2.689
					c-7.852,4.576-18.401,5.06-27.245,6.43c-10.373,1.606-20.864,2.445-31.36,2.503c-4.286,0.024-8.778-0.035-12.574,1.955
					c0.411-0.216,6.165,2.098,7.105,2.294c1.334,0.278,2.475,0.66,3.615,1.117C124.595,376.488,125.569,376.934,126.662,377.418z"/>
				<path d="M146.809,387.506c-1.293-1.133-2.761-2.082-4.206-3.006c-1.547-0.989-3.142-1.902-4.771-2.749
					c-3.305-1.717-6.76-3.117-10.187-4.567c-7.081-2.995-14.145-6.071-21.067-9.42c-1.905-0.921-3.821-2.323-5.681-3.332
					c-1.862-1.009-3.66-2.12-5.553-3.069c-0.294-0.148-0.671,0.257-0.377,0.488c2.898,2.277,6.338,3.919,9.631,5.551
					c3.344,1.657,6.743,3.201,10.146,4.731c3.59,1.614,7.196,3.193,10.817,4.736c3.451,1.471,6.943,2.858,10.316,4.505
					c1.865,0.91,3.681,1.912,5.452,2.991c1.7,1.036,3.297,2.221,4.978,3.282C146.458,387.446,146.646,387.7,146.809,387.506z"/>
				<path style="fill:#EBC0A9;" d="M137.634,409.242c-0.007-0.017-0.014-0.033-0.022-0.05c-0.538-1.243-1.075-2.485-1.613-3.728
					c-1.067-2.466-2.134-4.932-3.201-7.398c-0.122-0.281-9.302,4.389-10.09,5.037c-0.354,0.291-0.701,0.605-0.931,1
					c-0.316,0.542-0.388,1.186-0.461,1.809c-0.206,1.747-0.474,3.525-0.143,5.253c0.331,1.728,1.398,3.434,3.068,3.987
					c1.266,0.418,2.644,0.121,3.943-0.178c2.477-0.571,4.896-1.095,7.321-1.808c1.075-0.316,2.206-0.135,3.298-0.381
					c0.081-0.018,0.166-0.04,0.223-0.1C139.405,412.29,137.829,409.687,137.634,409.242z"/>
				<path d="M125.145,400.044c-3.959,1.318-7.919,2.637-11.878,3.955c-0.631,0.21-1.298,0.445-1.713,0.965
					c-0.377,0.472-0.48,1.099-0.57,1.696c-0.899,5.975-2.154,11.89-3.021,17.87c-0.784,5.401-0.664,10.637-1.459,16.033
					c-0.311,2.113,3.12,2.842,4.584,2.104c1.18-0.595,1.997-1.711,2.742-2.803c3.026-4.436,5.176-8.73,6.214-13.958
					c0.318-1.604,0.564-3.274,1.432-4.659c1.009-1.61,2.722-2.62,4.369-3.568c0.712-0.41,2.106-0.981,3.278-1.646
					C127.482,410.792,126.183,405.448,125.145,400.044z"/>
				<path style="fill:#F2A888;" d="M148.138,370.261c0.741-0.375,1.304-1.039,1.745-2.301c0.737-2.11,0.304-4.611-0.883-6.471
					c-1.531-2.4-4.352-4.254-7.129-4.837c-2.867-0.602-5.648-1.626-8.568-2.217c-2.101-0.425-4.167-1.004-6.23-1.582
					c-6.304-1.766-13.093-3.113-19.08-5.762c-0.364-0.161-0.745-0.346-0.953-0.686c-0.281-0.459-0.16-1.048-0.03-1.571
					c2.007-8.074,3.849-16.189,5.525-24.338c0.57-2.772,1.123-5.572,1.093-8.401c-0.054-5.136-2.118-10.225-5.656-13.948
					c-2.168-2.281-5.161-4.129-8.286-3.76c-2.567,0.303-4.775,2.077-6.219,4.222c-1.443,2.145-2.238,4.649-3.015,7.115
					c-2.62,8.317-5.658,16.725-6.831,25.371c-0.306,2.257-0.292,4.543-0.277,6.82c0.042,6.539,0.205,13.494,3.811,18.95
					c11.842,17.914,39.304,15.716,57.714,14C146.238,370.738,147.301,370.684,148.138,370.261z"/>
				<path d="M123.243,268.593c-0.106-0.441-0.39-0.801-0.528-1.225c-0.115-0.355-0.122-0.692-0.271-1.04
					c-0.361-0.846-1.002-1.528-1.218-2.446c-0.183-0.776,0.097-1.422,0.09-2.174c-0.006-0.604-0.289-1.3-0.411-1.901
					c-0.296-1.457-0.552-2.923-0.769-4.394c-0.11-0.744-0.208-1.516,0.004-2.238c0.226-0.772,0.783-1.401,1.374-1.947
					c0.819-0.756,1.736-1.406,2.721-1.928c0.466-0.247,0.965-0.481,1.282-0.903c0.416-0.554,0.423-1.303,0.616-1.968
					c0.33-1.142,1.218-2.044,2.194-2.724c2.524-1.76,5.739-2.311,8.808-2.092c3.069,0.219,6.039,1.151,8.953,2.14
					c0.464,0.157,0.946,0.328,1.285,0.681c0.553,0.577,0.584,1.483,1.023,2.151c0.678,1.034,2.096,1.228,3.123,1.917
					c0.876,0.588,1.467,1.581,1.566,2.631c0.241,2.545-1.876,4.677-4.361,4.74c-0.616,0.015-1.228-0.12-1.845-0.114
					c-1.519,0.017-2.893,0.885-4.382,1.188c-1.385,0.282-2.826,0.065-4.228,0.248c-1.402,0.183-2.905,0.952-3.234,2.327
					c-0.276,1.154-0.259,1.651-1.405,2.198c-0.748,0.357-1.696,0.485-2.208,1.207c-0.622,0.877-1.003,2.077-1.424,3.063
					c-0.475,1.11-0.915,2.234-1.321,3.371c-0.251,0.703-0.494,1.42-0.912,2.038c-0.419,0.618-1.046,1.136-1.785,1.243
					c-1.058,0.153-1.598-1.168-2.106-1.878c-0.153-0.214-0.308-0.431-0.413-0.672C123.237,269.591,123.364,269.096,123.243,268.593z
					"/>
				<path d="M188.769,359.237c-3.941,2.13-7.458,5.127-10.893,7.973c-3.499,2.9-6.958,5.865-10.745,8.389
					c-1.897,1.265-3.871,2.406-5.935,3.375c-2.113,0.992-4.292,1.833-6.432,2.762c-2.157,0.935-4.289,1.963-6.224,3.307
					c-2.037,1.414-3.767,3.212-5.787,4.647c-2.219,1.578-4.697,2.735-7.157,3.88c-0.601,0.28-1.202,0.559-1.801,0.845
					c-0.48,0.229-1.066,0.427-1.446,0.816c-0.326,0.333-0.376,0.757-0.316,1.201c0.102,0.752,0.255,1.501,0.436,2.237
					c0.08,0.324,0.626,0.266,0.595-0.081c-0.05-0.574-0.128-1.135-0.217-1.704c-0.049-0.314-0.149-0.629-0.032-0.931
					c0.129-0.334,0.46-0.444,0.767-0.595c1.058-0.518,2.131-1.007,3.197-1.509c2.124-0.998,4.243-2.039,6.172-3.385
					c1.977-1.38,3.662-3.121,5.613-4.533c1.851-1.339,3.898-2.375,5.98-3.302c2.099-0.934,4.243-1.764,6.334-2.714
					c2.025-0.92,3.972-1.987,5.841-3.192c3.669-2.364,7.031-5.167,10.382-7.955c1.939-1.613,3.878-3.23,5.882-4.762
					c1.973-1.508,4.03-2.862,6.115-4.207C189.451,359.573,189.14,359.036,188.769,359.237z"/>
				<g>
					<path style="fill:#F2A888;" d="M131.63,268.042c-3.709,1.158-6.281-2.674-5.285-5.326c1.385-3.691,6.468-3.384,7.609,0.347"/>
				</g>
				<path style="fill:#2C6AA3;" d="M99.279,288.643c0.095-0.061,0.191-0.122,0.288-0.183c0.953-0.593,1.761,0.542,2.573,0.947
					c1.143,0.57,2.357,0.978,3.531,1.476c1.759,0.746,3.418,1.724,4.929,2.894c3.018,2.336,5.45,5.451,6.857,9.008
					c2.977,7.527,1.497,15.99-0.025,23.94c-4.99-0.143-9.405,0.197-14.377-0.785c-6.447-1.273-12.706-3.259-18.783-5.724
					c0.511-3.276,1.149-6.535,2.005-9.739c1.162-4.345,2.734-8.599,4.933-12.532C93.294,294.217,95.654,290.987,99.279,288.643z"/>
				<g>
					<path d="M112.108,374.781h65.239c0.956,0,1.73-0.775,1.73-1.73l0,0c0-0.955-0.774-1.73-1.73-1.73h-65.239
						c-0.955,0-1.73,0.774-1.73,1.73l0,0C110.379,374.006,111.153,374.781,112.108,374.781z"/>
					<path d="M121.786,372.434h57.097l11.86-29.287c0.386-0.954-0.316-1.995-1.344-1.995h-53.968c-0.591,0-1.123,0.358-1.344,0.906
						L121.786,372.434z"/>
					<path style="fill:none;stroke:#FFFFFF;stroke-width:0.5;stroke-miterlimit:10;" d="M162.275,356.812
						c-0.607,1.587-2.655,2.873-4.574,2.873c-1.919,0-2.982-1.286-2.375-2.873c0.607-1.587,2.655-2.873,4.574-2.873
						C161.819,353.94,162.882,355.225,162.275,356.812z"/>
				</g>
				<path d="M148.955,269.461c-0.356,0.113-0.615,0.4-0.957,0.551c-0.342,0.151-0.727,0.234-1.1,0.243
					c-0.856,0.021-1.715-0.319-2.459-0.716c-0.143-0.076-0.323,0.127-0.183,0.236c0.785,0.613,1.664,1.071,2.678,1.119
					c0.449,0.021,0.903-0.047,1.319-0.219c0.408-0.169,0.922-0.435,1.01-0.908C149.295,269.592,149.15,269.399,148.955,269.461z"/>
				<path style="fill:#2C6AA3;" d="M225.123,214.461c-1.887,2.656-3.039,5.939-4.391,8.888c-1.411,3.076-2.833,6.147-4.268,9.212
					c-0.334,0.713-0.668,1.425-1.003,2.138c-0.201,0.427-0.401,0.855-0.601,1.283c-0.066,0.141-0.345,0.864-0.384,0.881
					c-0.169,0.074-1.365-1.089-1.596-1.284c-0.552-0.465-1.099-0.937-1.639-1.416c-1.231-1.092-2.424-2.227-3.608-3.369
					c-1.079-1.04-2.095-2.242-3.304-3.131c-0.604-0.444-1.542,0.3-1.141,0.98c0.9,1.525,2.276,2.835,3.508,4.095
					c1.173,1.201,2.409,2.342,3.659,3.462c1.05,0.94,2.446,2.656,3.899,2.897c1.552,0.258,2.135-1.233,2.678-2.372
					c1.693-3.552,3.338-7.128,4.981-10.703c0.788-1.716,1.578-3.432,2.354-5.154c0.831-1.843,1.769-3.725,2.227-5.702
					C226.683,214.351,225.668,213.693,225.123,214.461z"/>
				<path style="fill:#BF7E71;" d="M132.289,263.261c-0.301-0.68-1.037-1.173-1.781-1.173c-0.129,0-0.161,0.199-0.031,0.229
					c0.608,0.139,1.14,0.539,1.361,1.134c0.224,0.601,0.039,1.277-0.31,1.792c-0.149,0.219,0.169,0.428,0.349,0.27
					C132.512,264.956,132.621,264.012,132.289,263.261z"/>
				<path style="fill:#F2A888;" d="M206.637,239.328c2.472-1.686,4.971-3.394,6.97-5.62c0.403-0.449,0.799-0.947,0.901-1.542
					c0.103-0.595-0.195-1.3-0.779-1.451c-0.652-0.169-1.247,0.375-1.74,0.834c-1.895,1.764-4.383,2.879-6.96,3.12"/>
				<path style="fill:#BF7E71;" d="M143.903,276.73c-0.332-0.217-0.866-0.061-1.242-0.041c-0.447,0.025-0.895,0.038-1.343,0.044
					c-0.88,0.011-1.755-0.052-2.632-0.096c-0.402-0.02-0.503,0.642-0.096,0.713c0.9,0.156,1.816,0.198,2.729,0.198
					c0.449,0,0.895-0.02,1.343-0.055c0.397-0.032,1.01,0.018,1.303-0.289C144.103,277.057,144.067,276.838,143.903,276.73z"/>
				<path d="M62.165,368.661c0.607,1.217,0.296,2.73,0.868,3.964c0.424,0.914,1.274,1.552,1.85,2.379
					c0.897,1.29,1.038,3.118,0.189,4.44c-0.849,1.322-2.713,1.945-4.12,1.245c-1.126-0.561-1.769-1.768-2.219-2.943
					c-0.931-2.433-1.903-6.241-1.104-8.833C58.279,366.806,61.018,366.362,62.165,368.661z"/>
				<path d="M213.506,364.757c-1.022-0.82-2.531-1.012-3.695-0.409c-1.164,0.602-1.885,1.994-1.639,3.281
					c0.135,0.706,0.528,1.357,0.558,2.074c0.038,0.918-0.518,1.741-0.812,2.611c-0.434,1.288-0.245,2.822,0.661,3.836
					c0.906,1.014,2.559,1.35,3.694,0.602c1.204-0.794,1.503-2.396,1.73-3.82C214.41,370.379,215.979,366.743,213.506,364.757z"/>
				<path style="fill:#D78F73;" d="M120.22,431.642c-0.234-0.082-0.458-0.127-0.708-0.134c-0.179-0.005-0.356-0.028-0.534-0.033
					c-0.156-0.005-0.31-0.003-0.466-0.014c-0.081-0.006-0.161-0.014-0.242-0.022c-0.026-0.004-0.053-0.008-0.079-0.013
					c-0.33-0.057-0.647-0.16-0.974-0.23c-0.341-0.073-0.673-0.177-0.995-0.31c-0.285-0.118-0.691,0.076-0.829,0.338
					c-0.151,0.286-0.127,0.657,0.115,0.89c0.296,0.285,0.62,0.543,0.961,0.773c0.358,0.241,0.799,0.39,1.213,0.511
					c0.868,0.253,1.956,0.426,2.755-0.093c0.31-0.202,0.484-0.533,0.434-0.906C120.822,432.025,120.569,431.764,120.22,431.642z"/>
				<path style="fill:#D78F73;" d="M120.61,426.977c-0.321-0.109-0.654-0.08-0.986-0.068l-0.771,0.028
					c-0.247,0.009-0.495,0.018-0.743,0.027c-0.18,0.007-0.372,0.001-0.547,0.043c-0.122,0.029-0.24,0.074-0.359,0.114
					c-0.277,0.093-0.478,0.305-0.518,0.601c-0.037,0.276,0.091,0.583,0.345,0.72c0.155,0.084,0.311,0.178,0.479,0.235
					c0.125,0.042,0.255,0.064,0.384,0.091c0.24,0.05,0.479,0.101,0.719,0.151c0.239,0.05,0.479,0.101,0.718,0.151
					c0.129,0.027,0.258,0.054,0.387,0.081c0.138,0.029,0.278,0.062,0.42,0.065c0.159,0.003,0.316-0.033,0.472-0.058l0.27-0.114
					c0.132-0.071,0.238-0.168,0.317-0.291c0.147-0.191,0.254-0.438,0.243-0.685C121.417,427.548,121.1,427.143,120.61,426.977z"/>
				<path style="fill:#D78F73;" d="M122.992,423.487c-0.246-0.246-0.587-0.318-0.907-0.415c-0.348-0.105-0.695-0.21-1.043-0.315
					c-0.706-0.214-1.399-0.481-2.095-0.726c-0.312-0.11-0.664,0.1-0.784,0.385c-0.129,0.306-0.013,0.656,0.272,0.83
					c0.626,0.383,1.267,0.748,1.875,1.158c0.315,0.212,0.63,0.425,0.945,0.637c0.29,0.195,0.556,0.394,0.93,0.394
					c0.453,0,0.881-0.27,1.056-0.685C123.421,424.324,123.321,423.817,122.992,423.487z"/>
				<path style="fill:#D78F73;" d="M168.549,411.152c-0.167-0.21-0.516-0.324-0.757-0.151c-0.348,0.251-0.717,0.516-1.008,0.833
					c-0.31,0.338-0.593,0.706-0.851,1.084c-0.229,0.335-0.434,0.686-0.613,1.05c-0.111,0.225-0.236,0.465-0.312,0.702
					c-0.032,0.1-0.058,0.208-0.077,0.311c-0.039,0.21-0.017,0.405,0.037,0.609c0.148,0.567,0.847,0.703,1.254,0.331
					c0.125-0.114,0.232-0.23,0.299-0.389c0.01-0.023,0.014-0.034,0.021-0.049c0.004-0.008,0.005-0.012,0.011-0.024
					c0.017-0.039,0.034-0.077,0.051-0.116c0.098-0.226,0.166-0.462,0.251-0.693c0.032-0.085,0.066-0.169,0.099-0.254
					c0.021-0.046,0.041-0.093,0.062-0.139c0.08-0.175,0.167-0.348,0.258-0.518c0.178-0.328,0.377-0.645,0.595-0.947
					c0.111-0.154,0.215-0.313,0.325-0.468c0.052-0.073,0.104-0.145,0.158-0.217c0.008-0.011,0.02-0.026,0.028-0.036
					c0.04-0.05,0.081-0.1,0.122-0.15C168.689,411.697,168.742,411.395,168.549,411.152z"/>
				<path style="fill:#D78F73;" d="M172.687,413.103c-0.11-0.101-0.238-0.175-0.379-0.221c-0.183-0.059-0.503-0.034-0.662,0.087
					c-0.164,0.125-0.329,0.25-0.485,0.385c-0.161,0.139-0.286,0.324-0.414,0.491c-0.181,0.238-0.346,0.488-0.49,0.75
					c-0.175,0.319-0.32,0.655-0.449,0.995c-0.052,0.139-0.106,0.281-0.142,0.425c-0.055,0.222-0.067,0.474-0.08,0.705
					c-0.03,0.521,0.423,0.966,0.911,1.032c0.507,0.068,1.017-0.244,1.153-0.753c0.036-0.135,0.086-0.268,0.119-0.405
					c0.035-0.146,0.058-0.293,0.095-0.438c0.061-0.238,0.145-0.469,0.236-0.697c0.095-0.209,0.193-0.416,0.311-0.613
					c0.14-0.232,0.27-0.47,0.41-0.701C173.012,413.831,172.962,413.356,172.687,413.103z"/>
				<path d="M115.625,312.599c-0.531,2.321-0.988,4.662-1.464,6.995c-0.238,1.168-0.475,2.335-0.712,3.503
					c-0.11,0.539-0.219,1.078-0.329,1.617c-0.054,0.268-0.222,1.925-0.819,1.58c-0.391-0.226-0.736,0.368-0.353,0.604
					c0.816,0.502,1.477-0.237,1.688-0.991c0.398-1.422,0.674-2.891,1.009-4.329c0.674-2.896,1.38-5.79,1.983-8.702
					C116.765,312.223,115.776,311.942,115.625,312.599z"/>
				<path d="M161.904,311.9c-0.11-0.073-0.228-0.143-0.331-0.226c-0.079-0.064-0.175-0.174-0.257-0.258
					c-0.187-0.194-0.396-0.367-0.591-0.554c-0.191-0.183-0.377-0.37-0.559-0.561c-0.096-0.101-0.188-0.209-0.292-0.303
					c-0.209-0.189-0.441-0.31-0.728-0.314c-0.204-0.003-0.385,0.097-0.507,0.254c-0.135,0.175-0.148,0.35-0.115,0.562
					c0.063,0.412,0.471,0.658,0.796,0.86c0.238,0.147,0.479,0.288,0.724,0.424c0.261,0.144,0.523,0.29,0.801,0.399
					c0.107,0.042,0.241,0.083,0.332,0.129c0.112,0.057,0.245,0.139,0.367,0.204C161.952,312.736,162.286,312.154,161.904,311.9z"/>
			</g>
			<path d="M144.347,280.976c-0.041-0.129-0.178-0.182-0.297-0.121c-0.66,0.341-0.988,1.269-1.453,1.828
				c-0.551,0.664-1.213,1.225-1.948,1.675c-1.711,1.048-3.556,1.192-5.516,1.013c-2.077-0.19-4.278-0.402-6.19-1.298
				c-0.805-0.377-1.556-0.871-2.182-1.505c-0.295-0.298-0.557-0.623-0.778-0.98c-0.219-0.354-0.338-0.714-0.678-0.967
				c-0.172-0.128-0.477,0.001-0.514,0.209c-0.116,0.663,0.386,1.311,0.773,1.813c0.472,0.614,1.043,1.132,1.676,1.576
				c1.401,0.982,3.077,1.483,4.745,1.777c3.336,0.588,6.915,1.02,9.795-1.136c0.677-0.507,1.271-1.101,1.778-1.779
				C143.976,282.525,144.581,281.708,144.347,280.976z"/>
			<path style="fill:#BF7E71;" d="M216.793,292.178c-0.586,1.084-1.124,2.181-1.816,3.205c-0.687,1.017-1.483,1.979-2.338,2.859
				c-0.319,0.328,0.164,0.806,0.5,0.5c0.955-0.87,1.78-1.838,2.494-2.915c0.698-1.053,1.336-2.209,1.671-3.433
				C217.387,292.092,216.946,291.894,216.793,292.178z"/>
			<path style="fill:#BF7E71;" d="M89.117,355.117c-0.213-0.319-0.406-0.649-0.568-0.996c-0.313-0.667-0.526-1.391-0.628-2.12
				c-0.051-0.362-0.644-0.272-0.633,0.086c0.025,0.811,0.173,1.611,0.48,2.363c0.154,0.379,0.329,0.75,0.545,1.098
				c0.219,0.353,0.487,0.787,0.913,0.899c0.187,0.049,0.443-0.099,0.418-0.318C89.597,355.73,89.333,355.441,89.117,355.117z"/>
		</g>
		<g>
			<g>
				<g>
					<g>
						<g>
							<path style="fill:#C46345;" d="M151.341,90.142c-0.429-1.642-1.007-3.215-1.721-4.704c-0.11,0.1-0.209,0.209-0.331,0.299
								c-1.884,1.385-4.511,0.95-5.869-0.972c-1.358-1.923-0.931-4.604,0.952-5.989c0.133-0.098,0.276-0.166,0.416-0.245
								c-1.164-1.193-2.439-2.269-3.805-3.212c-0.048,0.152-0.083,0.306-0.149,0.455c-0.952,2.161-3.441,3.125-5.559,2.153
								c-2.118-0.972-3.062-3.512-2.11-5.673c0.075-0.17,0.174-0.318,0.267-0.472c-1.585-0.442-3.226-0.729-4.907-0.848
								c0.039,0.174,0.087,0.344,0.105,0.526c0.234,2.358-1.449,4.462-3.759,4.701c-2.31,0.238-4.373-1.479-4.607-3.837
								c-0.02-0.207-0.008-0.408,0-0.61c-1.646,0.438-3.222,1.037-4.712,1.779c0.137,0.146,0.277,0.288,0.396,0.456
								c1.358,1.922,0.931,4.604-0.952,5.989c-1.884,1.385-4.511,0.95-5.869-0.972c-0.129-0.183-0.227-0.378-0.325-0.573
								c-1.2,1.214-2.282,2.545-3.225,3.976c0.204,0.058,0.409,0.116,0.608,0.207c2.117,0.972,3.062,3.512,2.11,5.673
								c-0.952,2.161-3.441,3.125-5.559,2.153c-0.214-0.099-0.408-0.223-0.597-0.351c-0.44,1.652-0.723,3.363-0.833,5.115
								c0.213-0.057,0.426-0.112,0.652-0.136c2.31-0.239,4.372,1.479,4.606,3.837c0.234,2.358-1.449,4.462-3.759,4.701
								c-0.236,0.024-0.466,0.015-0.695,0c0.442,1.698,1.046,3.321,1.791,4.854c0.156-0.158,0.314-0.315,0.497-0.45
								c1.884-1.386,4.511-0.95,5.869,0.972c1.358,1.922,0.932,4.604-0.952,5.989c-0.185,0.136-0.381,0.24-0.578,0.341
								c1.197,1.217,2.511,2.311,3.919,3.265c0.056-0.203,0.111-0.406,0.198-0.604c0.952-2.161,3.441-3.125,5.559-2.153
								c2.118,0.972,3.062,3.512,2.11,5.673c-0.087,0.197-0.199,0.373-0.31,0.549c1.603,0.433,3.261,0.709,4.959,0.813
								c-0.044-0.187-0.094-0.371-0.114-0.568c-0.234-2.357,1.449-4.462,3.759-4.701c2.31-0.239,4.373,1.479,4.607,3.837
								c0.019,0.192,0.006,0.379,0,0.567c1.627-0.45,3.183-1.056,4.654-1.803c-0.115-0.127-0.236-0.245-0.338-0.389
								c-1.358-1.922-0.931-4.604,0.952-5.989c1.883-1.385,4.511-0.95,5.869,0.972c0.1,0.142,0.17,0.294,0.25,0.443
								c1.162-1.196,2.209-2.504,3.124-3.905c-0.145-0.048-0.291-0.082-0.433-0.148c-2.118-0.972-3.062-3.512-2.11-5.673
								c0.952-2.161,3.441-3.125,5.559-2.152c0.145,0.067,0.27,0.157,0.404,0.238c0.417-1.602,0.685-3.259,0.794-4.953
								c-0.14,0.029-0.274,0.073-0.42,0.087c-2.31,0.239-4.372-1.479-4.606-3.837c-0.234-2.357,1.449-4.462,3.759-4.7
								C151.038,90.126,151.188,90.141,151.341,90.142z M143.772,95.091c0.954,9.608-5.905,18.184-15.319,19.157
								c-9.414,0.972-17.819-6.028-18.772-15.635c-0.954-9.607,5.905-18.184,15.319-19.157
								C134.413,78.484,142.818,85.484,143.772,95.091z"/>
						</g>
						<path style="fill:#C46345;" d="M107.434,94.217c-1.432,10.858,6.061,20.88,16.701,22.342
							c10.64,1.462,20.46-6.182,21.891-17.04c1.432-10.858-6.059-20.881-16.699-22.343
							C118.687,75.715,108.865,83.359,107.434,94.217z M128.474,83.64c7.148,0.982,12.18,7.716,11.218,15.01
							c-0.962,7.295-7.559,12.43-14.707,11.447c-7.148-0.982-12.181-7.715-11.219-15.009
							C114.728,87.793,121.327,82.657,128.474,83.64z"/>
					</g>
				</g>
			</g>
		</g>
		<g>
			<g>
				<g>
					<g>
						<g>
							<path style="fill:#C46345;" d="M197.464,91.654c-0.394-1.507-0.924-2.951-1.579-4.317c-0.101,0.092-0.191,0.192-0.304,0.274
								c-1.729,1.271-4.14,0.872-5.386-0.892c-1.246-1.764-0.855-4.225,0.874-5.497c0.122-0.09,0.254-0.152,0.382-0.225
								c-1.069-1.095-2.238-2.082-3.492-2.948c-0.044,0.14-0.076,0.281-0.137,0.418c-0.874,1.983-3.158,2.868-5.101,1.976
								c-1.943-0.892-2.81-3.223-1.936-5.206c0.069-0.156,0.16-0.292,0.245-0.433c-1.455-0.405-2.961-0.669-4.503-0.778
								c0.036,0.159,0.08,0.316,0.096,0.482c0.215,2.164-1.33,4.095-3.45,4.314c-2.12,0.219-4.013-1.357-4.228-3.521
								c-0.019-0.19-0.008-0.375,0-0.56c-1.511,0.402-2.957,0.952-4.324,1.633c0.126,0.133,0.254,0.264,0.363,0.419
								c1.246,1.764,0.855,4.225-0.874,5.496c-1.729,1.271-4.14,0.872-5.386-0.892c-0.118-0.168-0.208-0.347-0.298-0.526
								c-1.101,1.115-2.094,2.336-2.959,3.649c0.188,0.053,0.375,0.106,0.558,0.19c1.943,0.892,2.81,3.223,1.936,5.206
								c-0.874,1.983-3.158,2.868-5.102,1.976c-0.197-0.09-0.374-0.205-0.548-0.323c-0.404,1.516-0.663,3.086-0.765,4.694
								c0.195-0.053,0.391-0.103,0.598-0.124c2.12-0.219,4.013,1.358,4.227,3.521c0.215,2.164-1.33,4.095-3.45,4.314
								c-0.216,0.022-0.428,0.014-0.638,0c0.405,1.558,0.96,3.048,1.644,4.455c0.143-0.145,0.288-0.289,0.456-0.413
								c1.729-1.272,4.14-0.872,5.386,0.892c1.246,1.764,0.855,4.225-0.874,5.496c-0.17,0.125-0.35,0.22-0.531,0.313
								c1.099,1.117,2.304,2.121,3.597,2.996c0.052-0.186,0.101-0.373,0.182-0.555c0.874-1.983,3.158-2.868,5.102-1.976
								c1.943,0.892,2.81,3.223,1.936,5.206c-0.08,0.181-0.183,0.342-0.285,0.504c1.471,0.397,2.993,0.65,4.551,0.746
								c-0.04-0.172-0.086-0.341-0.104-0.521c-0.215-2.164,1.33-4.095,3.45-4.314c2.12-0.219,4.013,1.358,4.228,3.521
								c0.018,0.176,0.005,0.348,0,0.52c1.493-0.413,2.921-0.969,4.271-1.655c-0.105-0.117-0.217-0.225-0.31-0.357
								c-1.246-1.764-0.855-4.225,0.874-5.497c1.729-1.271,4.14-0.872,5.386,0.892c0.091,0.13,0.156,0.27,0.23,0.406
								c1.067-1.097,2.027-2.298,2.867-3.584c-0.133-0.044-0.267-0.076-0.398-0.136c-1.943-0.892-2.81-3.223-1.936-5.206
								c0.874-1.983,3.158-2.868,5.102-1.975c0.133,0.061,0.248,0.144,0.371,0.218c0.383-1.47,0.629-2.99,0.728-4.546
								c-0.128,0.027-0.252,0.067-0.385,0.08c-2.12,0.219-4.013-1.357-4.227-3.521c-0.215-2.164,1.33-4.095,3.45-4.314
								C197.186,91.639,197.323,91.653,197.464,91.654z M190.517,96.196c0.875,8.817-5.419,16.688-14.059,17.581
								c-8.64,0.893-16.353-5.532-17.228-14.349c-0.875-8.817,5.419-16.688,14.059-17.581
								C181.929,80.954,189.642,87.379,190.517,96.196z"/>
						</g>
						<path style="fill:#C46345;" d="M157.168,95.394c-1.314,9.965,5.562,19.163,15.327,20.504
							c9.765,1.341,18.777-5.673,20.09-15.638c1.314-9.965-5.561-19.163-15.325-20.505
							C167.496,78.413,158.482,85.429,157.168,95.394z M176.478,85.686c6.56,0.901,11.178,7.081,10.296,13.776
							c-0.883,6.694-6.937,11.407-13.497,10.506c-6.56-0.901-11.179-7.081-10.296-13.775
							C163.863,89.498,169.918,84.785,176.478,85.686z"/>
					</g>
				</g>
			</g>
		</g>
		<g>
			<g>
				<path style="fill:#FFFFFF;" d="M301.775,98.219c-1.092-1.609-3.157-2.142-4.974-2.403c-2.702-0.387-5.445-0.562-8.17-0.688
					c-5.751-0.265-11.511-0.149-17.265-0.07c-5.89,0.081-11.78,0.161-17.671,0.242c-5.851,0.08-11.703,0.16-17.554,0.24
					c-2.906,0.04-5.813,0.08-8.719,0.119c-2.332,0.032-4.689,0.008-6.989,0.45c-1.985,0.381-3.887,1.172-5.323,2.625
					c-0.126-0.025-0.264,0.032-0.252,0.197c0.833,11.586,0.636,23.219,0.136,34.815c-0.501,11.625-1.306,23.237-1.614,34.87
					c-0.072,2.729-0.255,5.512-0.094,8.239c0.103,1.758,0.59,3.784,2.402,4.502c1.19,0.471,2.627,0.36,3.881,0.413
					c1.432,0.06,2.864,0.118,4.296,0.174c2.941,0.115,5.883,0.22,8.825,0.315c11.73,0.382,23.464,0.611,35.2,0.689
					c5.848,0.039,11.697,0.04,17.545,0.004c2.944-0.018,5.887-0.046,8.83-0.084c1.985-0.025,4.273,0.014,5.979-1.169
					c1.906-1.322,1.981-3.609,1.909-5.72c-0.098-2.897-0.187-5.793-0.258-8.691c-0.144-5.872-0.259-11.745-0.305-17.619
					c-0.092-11.67,0.034-23.342,0.381-35.008c0.087-2.936,0.191-5.871,0.308-8.806c0.058-1.448,0.135-2.896,0.182-4.345
					C302.498,100.378,302.432,99.187,301.775,98.219z"/>
			</g>
			<path d="M301.775,98.219c-1.092-1.609-3.157-2.142-4.974-2.403c-2.702-0.387-5.445-0.562-8.17-0.688
				c-5.751-0.265-11.511-0.149-17.265-0.07c-5.89,0.081-11.78,0.161-17.671,0.242c-5.851,0.08-11.703,0.16-17.554,0.24
				c-2.906,0.04-5.813,0.08-8.719,0.119c-2.332,0.032-4.689,0.008-6.989,0.45c-1.985,0.381-3.887,1.172-5.323,2.625
				c-0.126-0.025-0.264,0.032-0.252,0.197c0.833,11.586,0.636,23.219,0.136,34.815c-0.501,11.625-1.306,23.237-1.614,34.87
				c-0.072,2.729-0.255,5.512-0.094,8.239c0.103,1.758,0.59,3.784,2.402,4.502c1.19,0.471,2.627,0.36,3.881,0.413
				c1.432,0.06,2.864,0.118,4.296,0.174c2.941,0.115,5.883,0.22,8.825,0.315c11.73,0.382,23.464,0.611,35.2,0.689
				c5.848,0.039,11.697,0.04,17.545,0.004c2.944-0.018,5.887-0.046,8.83-0.084c1.985-0.025,4.273,0.014,5.979-1.169
				c1.906-1.322,1.981-3.609,1.909-5.72c-0.098-2.897-0.187-5.793-0.258-8.691c-0.144-5.872-0.259-11.745-0.305-17.619
				c-0.092-11.67,0.034-23.342,0.381-35.008c0.087-2.936,0.191-5.871,0.308-8.806c0.058-1.448,0.135-2.896,0.182-4.345
				C302.498,100.378,302.432,99.187,301.775,98.219z M301.703,103.191c-0.059,1.429-0.116,2.857-0.169,4.286
				c-0.421,11.354-0.648,22.715-0.661,34.076c-0.013,11.362,0.177,22.724,0.6,34.078c0.045,1.209,0.143,2.471-0.22,3.643
				c-0.341,1.103-1.155,1.9-2.212,2.331c-2.108,0.86-4.645,0.612-6.867,0.638c-5.693,0.067-11.387,0.097-17.08,0.093
				c-11.387-0.01-22.774-0.163-34.158-0.458c-5.692-0.148-11.382-0.331-17.072-0.551c-1.432-0.055-2.864-0.113-4.296-0.173
				c-1.275-0.053-2.91,0.123-4.047-0.557c-1.856-1.11-1.658-3.916-1.642-5.765c0.099-11.291,0.8-22.564,1.372-33.837
				c0.571-11.256,1.013-22.53,0.565-33.798c-0.103-2.587-0.268-5.17-0.478-7.751c0.079-0.005,0.16-0.033,0.233-0.108
				c3.253-3.375,8.734-2.882,13.013-2.941c5.696-0.079,11.393-0.159,17.089-0.238c11.353-0.158,22.707-0.399,34.061-0.453
				c5.551-0.026,11.147,0.054,16.661,0.76c1.87,0.24,4.351,0.75,5.118,2.736C301.99,100.434,301.757,101.906,301.703,103.191z"/>
			<path d="M301.261,98.697c-1.08-1.59-3.12-2.117-4.915-2.375c-2.67-0.383-5.382-0.556-8.075-0.68
				c-5.684-0.262-11.376-0.147-17.062-0.07c-5.821,0.08-11.643,0.159-17.464,0.239c-5.783,0.079-11.566,0.158-17.349,0.237
				c-2.872,0.039-5.745,0.079-8.617,0.118c-2.305,0.032-4.634,0.008-6.907,0.445c-1.962,0.377-3.841,1.158-5.261,2.594
				c-0.125-0.025-0.261,0.032-0.249,0.195c0.823,11.45,0.629,22.947,0.134,34.407c-0.495,11.489-1.29,22.965-1.595,34.462
				c-0.071,2.697-0.252,5.447-0.093,8.142c0.102,1.738,0.583,3.739,2.374,4.449c1.176,0.466,2.596,0.356,3.836,0.408
				c1.415,0.06,2.83,0.117,4.245,0.172c2.907,0.113,5.814,0.217,8.722,0.312c11.592,0.377,23.19,0.604,34.788,0.681
				c5.78,0.038,11.56,0.04,17.34,0.003c2.909-0.018,5.818-0.046,8.727-0.083c1.962-0.025,4.223,0.013,5.909-1.156
				c1.884-1.307,1.958-3.567,1.887-5.653c-0.097-2.863-0.185-5.726-0.255-8.589c-0.143-5.804-0.255-11.607-0.302-17.413
				c-0.091-11.534,0.034-23.069,0.376-34.598c0.086-2.901,0.189-5.802,0.304-8.703c0.057-1.431,0.133-2.863,0.18-4.294
				C301.975,100.829,301.91,99.653,301.261,98.697z M301.19,103.61c-0.059,1.412-0.115,2.824-0.167,4.236
				c-0.416,11.221-0.64,22.449-0.653,33.677c-0.013,11.229,0.175,22.458,0.593,33.679c0.044,1.195,0.141,2.442-0.217,3.6
				c-0.337,1.09-1.142,1.878-2.186,2.304c-2.083,0.85-4.59,0.604-6.787,0.63c-5.627,0.066-11.254,0.096-16.88,0.091
				c-11.254-0.01-22.508-0.161-33.758-0.453c-5.625-0.146-11.249-0.327-16.872-0.545c-1.415-0.055-2.83-0.112-4.245-0.171
				c-1.26-0.053-2.876,0.121-4-0.551c-1.834-1.097-1.638-3.87-1.622-5.697c0.098-11.159,0.791-22.3,1.356-33.441
				c0.564-11.124,1.001-22.266,0.559-33.403c-0.102-2.556-0.265-5.11-0.473-7.66c0.079-0.005,0.159-0.032,0.23-0.106
				c3.215-3.336,8.632-2.848,12.86-2.907c5.63-0.078,11.26-0.157,16.889-0.235c11.22-0.156,22.442-0.394,33.662-0.448
				c5.486-0.026,11.017,0.053,16.466,0.751c1.848,0.237,4.3,0.742,5.058,2.704C301.473,100.885,301.243,102.34,301.19,103.61z"/>
		</g>
		<path style="fill:#D47172;" d="M292.5,114.579c-4.745-0.58-9.647-0.262-14.423-0.247c-4.725,0.014-9.449,0.028-14.174,0.043
			c-8.294,0.025-16.613-0.007-24.904,0.367v1.151c8.291,0.375,16.61,0.342,24.904,0.367l14.174,0.043
			c4.775,0.014,9.679,0.333,14.423-0.247C293.447,115.94,293.449,114.695,292.5,114.579z"/>
		<path style="fill:#D47172;" d="M290.181,130.693c-4.625-0.4-9.272-0.276-13.912-0.281c-4.72-0.005-9.44-0.009-14.161-0.014
			c-4.637-0.005-9.275,0.027-13.912,0.043c-3.053,0.01-6.135,0.059-9.198,0.268v1.675c2.98,0.201,5.977,0.252,8.95,0.269
			c4.72,0.027,9.441,0.048,14.16,0.044c4.637-0.004,9.275-0.009,13.912-0.014c4.722-0.005,9.453,0.127,14.161-0.281
			C291.279,132.308,291.281,130.788,290.181,130.693z"/>
		<path style="fill:#D47172;" d="M289.408,142.699c-4.269-0.016-8.537-0.032-12.806-0.048c-4.177-0.016-8.386,0.116-12.56-0.061
			c-4.189-0.178-8.365-0.334-12.559-0.394c-2.134-0.031-4.269-0.03-6.403-0.039c-2.024-0.008-4.146-0.196-6.15,0.115
			c-0.861,0.134-0.861,1.605,0,1.739c2.005,0.312,4.124,0.124,6.15,0.115c2.134-0.009,4.269-0.008,6.403-0.039
			c4.194-0.06,8.37-0.216,12.559-0.394c4.173-0.177,8.382-0.046,12.56-0.061c4.269-0.016,8.537-0.032,12.806-0.048
			C289.978,143.582,289.979,142.701,289.408,142.699z"/>
		<path style="fill:#D47172;" d="M288.179,165.211c-1.062-0.24-1.948-0.48-3.05-0.551c-0.982-0.064-1.971-0.079-2.955-0.103
			c-2.133-0.052-4.269-0.048-6.403-0.071c-4.268-0.045-8.537-0.028-12.806-0.033l-12.806-0.017
			c-4.182-0.006-8.344-0.102-12.495,0.46c-0.653,0.088-0.653,1.23,0,1.319c4.151,0.562,8.314,0.466,12.495,0.46
			c4.269-0.006,8.537-0.011,12.806-0.017c4.268-0.006,8.538,0.012,12.806-0.033c2.134-0.023,4.27-0.021,6.403-0.071
			c0.984-0.023,1.973-0.041,2.955-0.102c1.09-0.069,1.996-0.313,3.05-0.551C288.52,165.823,288.52,165.288,288.179,165.211z"/>
		<path style="fill:#5CC9BF;" d="M228.485,110.305c-0.398-0.206-0.871-0.152-1.197,0.13c-1.965-0.693-4.206-0.045-5.55,1.54
			c-1.48,1.745-1.532,4.237-0.372,6.175c1.177,1.967,3.341,2.927,5.585,2.53c2.084-0.369,3.981-2.012,4.413-4.118
			C231.859,114.147,230.704,111.453,228.485,110.305z M227.162,118.662c-1.432,0.476-2.881,0.211-3.908-1.021
			c-0.948-1.136-1.183-2.766-0.483-4.075c0.763-1.428,2.573-2.385,4.193-2.185c0.048,0.298,0.201,0.576,0.478,0.709
			c1.341,0.643,2.138,2.001,2.099,3.483C229.505,116.938,228.511,118.214,227.162,118.662z"/>
		<path style="fill:#5CC9BF;" d="M230.456,126.835c-0.029-0.018-0.056-0.017-0.085-0.031c0.183-0.189,0.222-0.516-0.075-0.65
			c-1.833-0.828-3.921-0.553-5.525,0.65c-1.686,1.264-2.476,3.398-1.908,5.444c0.526,1.893,2.118,3.617,4.097,3.979
			c2.21,0.405,4.543-0.821,5.497-2.858C233.545,131.048,232.646,128.159,230.456,126.835z M231.04,132.222
			c-0.431,1.428-1.909,2.457-3.391,2.388c-1.395-0.065-2.602-1.212-3.092-2.464c-0.529-1.353-0.208-2.788,0.819-3.807
			c1.065-1.056,2.663-1.661,4.167-1.47c-0.439,0.333-0.585,1.088,0.026,1.482C230.819,129.157,231.473,130.788,231.04,132.222z"/>
		<path style="fill:#5CC9BF;" d="M229.208,156.145c-1.152-0.268-1.542,1.322-0.479,1.739c1.501,0.589,2.775,1.875,3.169,3.454
			c0.384,1.542-0.288,3.154-1.553,4.088c-1.574,1.162-3.426,0.676-5.069-0.098c-0.737-0.347-1.522-0.79-1.952-1.509
			c-0.456-0.763-0.361-1.67-0.059-2.474c0.361-0.959,1.052-1.86,1.85-2.497c0.818-0.653,2.048-1.238,2.905-0.352
			c0.323,0.334,0.807-0.163,0.506-0.506c-0.716-0.816-2.048-1.249-3.106-0.992c-1.237,0.301-2.242,1.346-2.974,2.331
			c-0.75,1.009-1.329,2.292-1.255,3.575c0.073,1.281,0.727,2.378,1.723,3.162c1.011,0.797,2.26,1.337,3.487,1.705
			c1.299,0.39,2.645,0.41,3.903-0.121c2.183-0.92,3.761-3.206,3.664-5.602C233.859,159.333,231.873,156.766,229.208,156.145z"/>
		<g>
			<g>
				<path style="fill:#FFFFFF;" d="M311.43,92.427c0.137,5.281,0.357,10.559,0.548,15.838c0.092,2.537,0.082,5.122,0.341,7.648
					c0.176,1.716,0.713,3.659,2.491,4.339c1.082,0.413,2.365,0.339,3.504,0.402c1.347,0.074,2.695,0.145,4.043,0.217
					c2.695,0.145,5.391,0.279,8.088,0.402c5.393,0.248,10.787,0.454,16.183,0.619c10.792,0.33,21.589,0.487,32.386,0.471
					c10.219-0.015,20.488,0.001,30.693-0.645c0.113,0.117,0.274,0.181,0.48,0.114c0.132-0.043,0.244-0.106,0.359-0.166
					c0.285-0.019,0.57-0.033,0.854-0.053c0.275-0.02,0.28-0.429,0-0.432c-0.065-0.001-0.131,0-0.196-0.001
					c0.73-0.778,0.948-1.993,1.035-3.068c0.193-2.362,0.33-4.729,0.462-7.095c0.481-8.568,0.681-17.151,0.6-25.732
					c-0.04-4.291-0.167-8.581-0.358-12.868c-0.189-4.239-0.396-8.502-0.856-12.722c0.691,0.041,1.382,0.073,2.072,0.116
					c0.828,0.051,0.823-1.236,0-1.287c-7.228-0.449-14.455-0.845-21.693-1.117c-12.835-0.483-25.681-0.687-38.525-0.609
					c-12.885,0.078-25.768,0.438-38.638,1.076c-0.299,0.015-0.559,0.196-0.645,0.491c-0.347,1.188-0.665,2.385-0.949,3.59
					C311.364,71.915,311.166,82.245,311.43,92.427z"/>
				<path d="M310.997,92.451c0.138,5.325,0.36,10.648,0.553,15.97c0.093,2.559,0.083,5.165,0.344,7.712
					c0.177,1.73,0.719,3.69,2.512,4.375c1.091,0.417,2.385,0.342,3.533,0.405c1.359,0.075,2.718,0.146,4.076,0.219
					c2.718,0.146,5.436,0.281,8.155,0.406c5.438,0.25,10.878,0.458,16.319,0.624c10.883,0.332,21.77,0.491,32.657,0.475
					c5.323-0.008,10.646-0.007,15.969-0.094c2.662-0.044,5.324-0.109,7.985-0.208c2.381-0.089,5.239,0.175,7.523-0.519
					c0.133-0.04,0.264-0.083,0.396-0.127c1.323-0.446,1.533-2.126,1.632-3.336c0.194-2.381,0.332-4.769,0.466-7.154
					c0.485-8.64,0.686-17.295,0.605-25.948c-0.04-4.327-0.169-8.653-0.361-12.976c-0.191-4.275-0.399-8.573-0.863-12.828
					c0.696,0.041,1.393,0.074,2.089,0.117c0.836,0.052,0.83-1.246,0-1.298c-7.289-0.452-14.576-0.852-21.875-1.127
					c-12.943-0.487-25.896-0.693-38.847-0.614c-12.993,0.079-25.984,0.442-38.961,1.085c-0.302,0.015-0.563,0.198-0.65,0.495
					c-0.35,1.198-0.671,2.405-0.957,3.62C310.931,71.767,310.732,82.183,310.997,92.451z M315.431,58.935
					c7.117-0.346,14.238-0.612,21.361-0.788c12.948-0.321,25.902-0.359,38.852-0.12c12.089,0.224,24.184,0.676,36.256,1.385
					c0.17,4.659,0.481,9.313,0.639,13.974c0.282,8.318,0.32,16.647,0.1,24.967c-0.11,4.161-0.285,8.32-0.526,12.475
					c-0.122,2.098-0.26,4.195-0.415,6.291c-0.074,1.008-0.052,2.165-0.565,3.073c-0.747,1.322-1.962,1.227-3.286,1.241
					c-10.639,0.117-21.277,0.284-31.917,0.233c-10.681-0.051-21.362-0.257-32.037-0.617c-5.317-0.18-10.633-0.399-15.947-0.659
					c-2.636-0.129-5.272-0.263-7.907-0.418c-1.336-0.079-2.674-0.144-4.009-0.245c-1.052-0.08-1.934-0.395-2.442-1.369
					c-0.42-0.805-0.53-1.759-0.581-2.652c-0.072-1.268-0.076-2.543-0.109-3.812c-0.07-2.646-0.152-5.292-0.236-7.939
					c-0.163-5.169-0.351-10.339-0.401-15.51C312.165,78.528,312.701,68.518,315.431,58.935z"/>
			</g>
			<path style="fill:#D47172;" d="M321.044,73.557c22.042,0.006,44.084-0.059,66.126,0.054c6.305,0.032,12.599,0.062,18.893,0.436
				c0.42,0.025,0.42,0.628,0,0.653c-11.077,0.658-22.216,0.473-33.311,0.476c-10.938,0.003-21.876,0.006-32.814,0.009
				c-6.298,0.002-12.595,0.003-18.893,0.005C319.994,75.189,319.992,73.556,321.044,73.557z"/>
			<path style="fill:#D47172;" d="M318.725,84.393c5.747-0.304,11.569-0.063,17.325-0.073c5.693-0.009,11.385-0.014,17.078-0.015
				c11.468-0.003,22.935,0,34.403,0.032c6.437,0.018,12.884-0.026,19.305,0.483c0.479,0.038,0.48,0.708,0,0.746
				c-5.764,0.457-11.546,0.462-17.325,0.478c-5.693,0.016-11.385,0.044-17.078,0.042c-11.468-0.003-22.935,0.001-34.403-0.017
				c-6.413-0.01-12.902,0.263-19.305-0.076C317.696,85.939,317.694,84.447,318.725,84.393z"/>
			<path style="fill:#D47172;" d="M318.725,95.322c8.223-0.474,16.499-0.24,24.733-0.22c8.231,0.019,16.546-0.307,24.733,0.593
				c0.409,0.045,0.41,0.592,0,0.637c-8.187,0.9-16.501,0.574-24.733,0.593c-8.234,0.02-16.51,0.253-24.733-0.22
				C317.836,96.654,317.835,95.373,318.725,95.322z"/>
			<g>
				<path style="fill:#5CC9BF;" d="M391.92,110.331c0.007,1.1-0.18,2.492,0.898,3.175c0.479,0.304,1.071,0.308,1.617,0.309
					c0.585,0.001,1.169,0,1.754-0.001c1.242,0,2.484-0.008,3.727-0.016c0.658-0.004,1.315-0.008,1.973-0.012
					c0.558-0.003,1.165,0.058,1.713-0.067c1.274-0.29,1.275-1.464,1.253-2.533c-0.021-1.006-0.098-2.016-0.208-3.019
					c0.301-0.406,0.207-1.119-0.268-1.342c-0.708-0.333-1.45-0.264-2.216-0.27c-0.732-0.005-1.464-0.01-2.196-0.016
					c-1.391-0.01-2.782-0.02-4.173-0.03c-1.017-0.007-2.381-0.243-3.222,0.471C391.636,107.775,391.913,109.24,391.92,110.331z
					 M393.932,111.81c0.001-0.014,0-0.021,0.005-0.043c0.093-0.434-0.006-0.991-0.007-1.437c0-0.473-0.002-0.946-0.001-1.419
					c0-0.05,0.019-0.273,0.012-0.372c0.008-0.001,0.018-0.006,0.026-0.006c0.458,0.028,0.929,0.004,1.388,0.01
					c0.988,0.013,1.977,0.025,2.965,0.038c0.988,0.013,1.977,0.025,2.965,0.038c0.595,0.007,1.23,0.061,1.847,0.029
					c-0.055,0.738-0.096,1.478-0.113,2.217c-0.006,0.25-0.002,0.5-0.002,0.75c0,0.045-0.015,0.175-0.019,0.287
					c-0.005-0.001-0.007,0-0.012-0.001c-0.094-0.024-0.232-0.002-0.329-0.004c-0.256-0.003-0.512-0.005-0.767-0.008
					c-2.01-0.022-4.019-0.047-6.029-0.057c-0.548-0.003-1.096,0.002-1.644-0.008C394.125,111.822,394.024,111.826,393.932,111.81z"
					/>
				<path style="fill:#5CC9BF;" d="M352.263,109.245c0.255,1.132,0.299,3.165,1.503,3.724c0.6,0.279,1.385,0.281,2.033,0.366
					c0.789,0.104,1.58,0.192,2.372,0.262c3.12,0.278,6.26,0.291,9.382,0.039c1.145-0.092,2.763-0.036,2.901-1.533
					c0.069-0.751-0.108-1.57-0.176-2.32c-0.063-0.697-0.161-1.387-0.261-2.08c-0.046-0.318-0.283-0.449-0.538-0.45
					c-0.037-0.312-0.242-0.593-0.673-0.704c-0.926-0.238-1.93-0.206-2.881-0.248c-0.877-0.039-1.754-0.073-2.631-0.099
					c-1.864-0.057-3.729-0.081-5.594-0.072c-0.823,0.004-1.646,0.014-2.468,0.029c-0.683,0.013-1.494-0.083-2.155,0.124
					C351.693,106.715,352.023,108.178,352.263,109.245z M354.058,108.269c-0.008-0.03-0.011-0.062-0.018-0.093
					c0.016-0.003,0.023-0.002,0.041-0.006c0.699,0.146,1.592-0.018,2.303-0.019c0.768-0.002,1.536,0.001,2.304,0.009
					c1.645,0.017,3.291,0.049,4.935,0.102c0.767,0.025,1.535,0.054,2.302,0.089c0.864,0.039,1.77,0.174,2.629,0.059
					c0.078-0.01,0.144-0.041,0.214-0.067c-0.008,0.692-0.01,1.382,0.011,2.075c0.011,0.371,0.026,0.743,0.034,1.115
					c0.008,0.382,0.126,0.346-0.309,0.347c-1.587,0.001-3.177,0.198-4.769,0.195c-1.486-0.003-2.973-0.06-4.454-0.177
					c-0.847-0.067-1.692-0.152-2.535-0.258c-0.341-0.043-0.681-0.089-1.021-0.139c-0.201-0.03-1.032-0.035-1.157-0.19
					c0.129,0.16-0.039-0.836-0.057-0.923c-0.063-0.303-0.13-0.606-0.195-0.908C354.231,109.077,354.139,108.674,354.058,108.269z"/>
				<path style="fill:#5CC9BF;" d="M319.602,110.095c0.171,1.033,0.381,2.087,0.818,3.042c0.12,0.262,0.488,0.465,0.771,0.443
					c2.423-0.192,4.945,0.041,7.377,0.08c2.326,0.037,4.652,0.082,6.978,0.112c1.192,0.015,2.398,0.072,3.589,0.027
					c0.803-0.03,1.335-0.3,1.671-1.041c0.722-1.593,1.005-4.069,0.17-5.659c-0.242-0.461-0.823-0.194-0.892,0.223
					c-4.78-0.204-9.559-0.409-14.339-0.598c-1.268-0.05-2.536-0.1-3.804-0.15c-0.863-0.034-1.904-0.131-2.365,0.78
					C319.176,108.144,319.465,109.267,319.602,110.095z M321.938,111.85c-0.091-0.46-0.19-0.918-0.267-1.382
					c-0.053-0.319-0.319-1.32-0.289-1.917c0.635-0.045,1.431,0.104,1.96,0.129c0.801,0.037,1.601,0.074,2.402,0.111
					c1.602,0.074,3.203,0.15,4.805,0.221c3.15,0.139,6.299,0.27,9.449,0.404c-0.013,0.323-0.036,0.647-0.098,0.974
					c-0.067,0.355-0.151,0.71-0.256,1.056c-0.206,0.676-0.215,0.746-0.908,0.768c-1.913,0.063-3.867-0.105-5.782-0.144
					c-1.927-0.039-3.854-0.079-5.782-0.118C325.447,111.917,323.668,111.982,321.938,111.85z"/>
			</g>
		</g>
		<g>
			<g>
				<path style="fill:#FFFFFF;" d="M148.3,170.311c-0.275-1.166-0.582-2.324-0.918-3.473c-0.083-0.285-0.334-0.461-0.624-0.475
					c-12.451-0.617-24.915-0.966-37.382-1.041c-12.427-0.075-24.854,0.122-37.273,0.589c-7.003,0.263-13.995,0.647-20.988,1.081
					c-0.796,0.049-0.802,1.295,0,1.245c0.668-0.042,1.337-0.073,2.005-0.112c-0.445,4.083-0.645,8.207-0.828,12.309
					c-0.185,4.147-0.308,8.298-0.347,12.45c-0.078,8.302,0.116,16.607,0.581,24.896c0.128,2.289,0.261,4.579,0.447,6.864
					c0.085,1.039,0.296,2.215,1.002,2.968c-0.063,0.001-0.126,0-0.19,0.001c-0.271,0.003-0.266,0.399,0,0.417
					c0.275,0.02,0.551,0.033,0.826,0.051c0.112,0.057,0.22,0.119,0.348,0.161c0.199,0.065,0.355,0.002,0.464-0.11
					c9.873,0.624,19.809,0.609,29.696,0.624c10.446,0.015,20.892-0.137,31.334-0.456c5.221-0.159,10.44-0.359,15.657-0.598
					c2.609-0.12,5.217-0.25,7.825-0.389c1.304-0.07,2.608-0.138,3.911-0.21c1.102-0.061,2.343,0.011,3.39-0.389
					c1.72-0.658,2.24-2.538,2.41-4.198c0.25-2.444,0.241-4.945,0.33-7.4c0.185-5.107,0.398-10.214,0.531-15.323
					C150.762,189.941,150.571,179.947,148.3,170.311z"/>
				<path d="M148.7,170.087c-0.277-1.176-0.587-2.343-0.926-3.502c-0.084-0.287-0.337-0.464-0.629-0.479
					c-12.555-0.622-25.124-0.974-37.695-1.05c-12.531-0.076-25.063,0.123-37.585,0.594c-7.061,0.266-14.112,0.652-21.164,1.09
					c-0.803,0.05-0.808,1.306,0,1.256c0.673-0.042,1.348-0.073,2.021-0.113c-0.449,4.117-0.65,8.276-0.835,12.412
					c-0.187,4.182-0.31,8.368-0.35,12.554c-0.078,8.371,0.117,16.746,0.586,25.104c0.129,2.308,0.263,4.618,0.451,6.921
					c0.096,1.171,0.299,2.796,1.579,3.228c0.127,0.043,0.255,0.084,0.383,0.123c2.21,0.672,4.975,0.416,7.279,0.502
					c2.574,0.096,5.15,0.159,7.726,0.201c5.149,0.084,10.3,0.084,15.45,0.091c10.534,0.015,21.067-0.138,31.596-0.459
					c5.264-0.161,10.527-0.362,15.788-0.604c2.631-0.121,5.261-0.252,7.89-0.393c1.315-0.07,2.629-0.139,3.944-0.212
					c1.111-0.061,2.363,0.011,3.418-0.392c1.734-0.663,2.259-2.559,2.43-4.233c0.252-2.465,0.243-4.986,0.333-7.462
					c0.187-5.15,0.402-10.3,0.535-15.451C151.183,189.881,150.99,179.804,148.7,170.087z M149.702,195.94
					c-0.049,5.004-0.23,10.005-0.388,15.006c-0.081,2.56-0.16,5.12-0.228,7.681c-0.033,1.228-0.036,2.461-0.106,3.688
					c-0.049,0.864-0.156,1.787-0.562,2.566c-0.491,0.943-1.344,1.247-2.363,1.324c-1.291,0.098-2.586,0.161-3.878,0.237
					c-2.549,0.15-5.1,0.28-7.65,0.404c-5.141,0.251-10.284,0.463-15.428,0.637c-10.328,0.349-20.662,0.548-30.996,0.597
					c-10.295,0.049-20.586-0.112-30.879-0.226c-1.281-0.014-2.457,0.078-3.18-1.201c-0.496-0.878-0.474-1.997-0.546-2.973
					c-0.15-2.028-0.284-4.057-0.401-6.087c-0.233-4.02-0.403-8.044-0.509-12.069c-0.213-8.049-0.176-16.108,0.097-24.155
					c0.153-4.509,0.454-9.012,0.618-13.52c11.68-0.686,23.381-1.124,35.077-1.34c12.529-0.232,25.062-0.195,37.589,0.116
					c6.891,0.171,13.781,0.428,20.666,0.763C149.277,176.66,149.796,186.344,149.702,195.94z"/>
			</g>
			<g>
				<g>
					<g>
						<polygon style="fill:#7BC9C2;" points="133.425,176.829 133.894,218.773 124.638,218.817 124.17,176.874 						"/>
						<polygon style="fill:#7BC9C2;" points="114.79,185.229 115.172,218.873 105.916,218.919 105.535,185.274 						"/>
						<polygon style="fill:#7BC9C2;" points="86.877,192.544 87.193,219.019 96.449,218.977 96.133,192.544 						"/>
						<polygon style="fill:#7BC9C2;" points="77.101,203.647 77.275,219.068 68.02,219.113 67.845,203.692 						"/>
					</g>
				</g>
				<path d="M139.46,218.529c-5.244-0.392-10.559-0.185-15.814-0.2c-5.192-0.015-10.383-0.01-15.575-0.009
					c-10.463,0.001-20.926,0.003-31.39,0.004c-5.91,0.001-11.821,0.002-17.732,0.002c-0.822,0-0.824,1.278,0,1.278
					c20.926,0.003,41.853,0.064,62.779,0.003c5.89-0.017,11.855,0.233,17.731-0.206C140.021,219.36,140.022,218.572,139.46,218.529z
					"/>
			</g>
		</g>
		<path style="fill:#286794;" d="M186.688,136.59c-0.522,0.432-0.916,0.936-1.347,1.453c-0.273,0.328-0.281,0.715-0.137,1.023
			c-4.513,7.746-8.917,15.566-13.276,23.398c-3.052-3.026-5.87-6.269-8.547-9.634c-0.47-0.59-1.387,0.166-1.025,0.791
			c2.458,4.246,5.557,8.065,9.026,11.526c0.521,0.52,1.422,0.404,1.794-0.231c5.21-8.907,10.389-17.851,15.391-26.876
			C189.254,136.799,187.708,135.747,186.688,136.59z"/>
		<path style="fill:#286794;" d="M227.652,172.916c-0.522,0.432-0.916,0.936-1.347,1.453c-0.273,0.328-0.281,0.715-0.137,1.023
			c-4.513,7.746-8.917,15.566-13.276,23.398c-3.052-3.026-5.87-6.269-8.547-9.634c-0.47-0.59-1.387,0.166-1.025,0.791
			c2.458,4.245,5.557,8.065,9.026,11.526c0.521,0.52,1.422,0.404,1.794-0.231c5.21-8.907,10.389-17.851,15.391-26.876
			C230.218,173.125,228.671,172.073,227.652,172.916z"/>
		<g>
			<path style="fill:#F2A888;" d="M342.641,169.001c17.756,4.747,36.384,9.897,45.254,17.76c7.12,6.312,6.913,13.706,2.208,20.383
				c-4.705,6.677-13.608,12.737-23.447,18.41c-3.72,2.145-7.807,3.518-12.087,3.174c-3.021-0.243-5.769-2.008-7.746-4.304
				c-1.978-2.296-3.274-5.095-4.377-7.917c-3.33-8.516-5.135-17.68-4.763-26.816c0.206-5.06,1.071-10.066,1.934-15.056
				c0.375-2.167,1.182-4.795,3.346-5.182C342.631,169.527,342.973,168.926,342.641,169.001z"/>
			<path style="fill:#F2A888;" d="M354.074,387.119c0.176,2.954,3.555,34.687,3.555,34.687l17.783-1.718l-1.071-34.343
				L354.074,387.119z"/>
			<path d="M377.052,430.177c1.048-0.933,0.825-2.679,0.364-4.793c-0.213-0.978-0.523-1.932-0.758-2.905
				c-0.353-1.457,0.081-4.308-0.591-5.512c-0.573-1.026-1.499-0.911-2.617-0.98c-2.038-0.127-4.203-0.175-6.239,0.036
				c-1.836,0.19-3.698,0.192-5.525-0.091c-1.228-0.19-3.524-1.456-4.658-1.068c-0.855,0.293-2.135,2.313-3.072,2.903
				c-1.394,0.877-2.967,1.461-4.486,2.081c-3.008,1.229-5.963,2.663-8.644,4.51c-1.735,1.195-5.572,3.665-6.265,5.707
				c-0.207,0.609,0.003,1.411,0.607,1.634c0.22,0.082,0.462,0.077,0.697,0.072c12.9-0.286,25.8-0.573,38.7-0.859
				C375.76,430.884,376.551,430.624,377.052,430.177z"/>
			<path style="fill:#2C6AA3;" d="M330.313,290.444c-0.904-9.574-1.742-19.197-1.62-28.802c0.113-8.883-1.149-18.238-0.174-27.054
				c0.596-5.386,3.896-8.431,9.432-8.744c6.714-0.379,13.296,3.069,17.669,8.177c7.385,8.625,7.805,19.119,8.823,29.742
				c1.109,11.573,4.026,22.873,5.416,34.405c3.856,32.016,7.054,64.111,9.589,96.258c0.117,1.485,0.186,3.13-0.746,4.291
				c-0.799,0.996-2.13,1.365-3.376,1.644c-8.782,1.964-17.947,2.201-26.819,0.694c-1.938-0.329-4.009-0.825-5.284-2.321
				c-1.172-1.376-1.408-3.294-1.594-5.092C338.12,359.767,330.313,324.502,330.313,290.444z"/>
			<path style="fill:#F2A888;" d="M286.23,391.241c-0.123,2.978-0.697,31.784-0.697,31.784l17.946-1.125l4.908-33.579
				L286.23,391.241z"/>
			<rect x="324.947" y="148.322" style="fill:#F2A888;" width="15.962" height="20.088"/>
			<path style="fill:#2C6AA3;" d="M336.68,218.973c-11.952-6.925-22.54,6.564-26.362,16.382
				c-20.428,52.482-28.465,108.788-35.895,164.657c-0.211,1.588,0.849,3.086,2.426,3.371c0.023,0.004,0.046,0.008,0.069,0.012
				c0.968,0.173,1.938,0.317,2.907,0.447c5.348-0.551,13.252-0.152,20.272,0.385c5.303-0.334,10.61-0.869,15.913-1.289
				c2.298-6.537,1.907-16.937,2.887-23.104c1.558-9.809,3.092-19.622,4.721-29.419c3.148-18.944,6.598-37.852,11.092-56.529
				c1.411-5.862,2.922-11.693,4.556-17.485c0.064-0.226,3.125-11.075,4.151-17.457c0.001-0.016,0.002-0.039,0.003-0.055
				c-0.042-1.123-0.095-2.427,0.757-3.16c0.171-0.147,0.368-0.255,0.571-0.353c0.771-1.673,1.674-3.283,2.538-4.919
				C351.837,241.829,344.944,223.761,336.68,218.973z"/>
			<g>
				<defs>
					<path id="SVGID_1_" d="M379.448,394.427c-2.535-32.147-5.733-64.242-9.589-96.258c-1.389-11.532-4.306-22.832-5.416-34.405
						c-1.018-10.624-1.438-21.118-8.823-29.743c-3.139-3.665-7.416-6.467-12.061-7.622c-1.977-3.278-4.364-5.97-6.879-7.427
						c-11.952-6.925-22.54,6.564-26.362,16.382c-20.428,52.482-28.465,108.787-35.895,164.657c-0.211,1.588,0.849,3.086,2.426,3.371
						c0.023,0.004,0.046,0.008,0.069,0.012c0.968,0.173,1.938,0.317,2.907,0.447c5.348-0.551,13.252-0.152,20.272,0.385
						c5.303-0.334,10.61-0.869,15.913-1.289c2.298-6.537,1.907-16.936,2.887-23.104c1.558-9.809,3.092-19.622,4.721-29.419
						c2.243-13.5,4.648-26.98,7.467-40.373c2.053,27.859,7.705,56.184,10.546,83.6c0.186,1.798,0.422,3.716,1.594,5.092
						c1.274,1.496,3.346,1.992,5.284,2.321c8.872,1.508,18.037,1.271,26.819-0.694c1.246-0.279,2.576-0.648,3.376-1.644
						C379.634,397.557,379.565,395.912,379.448,394.427z"/>
				</defs>
				<clipPath id="SVGID_00000124881849950887191690000001028884650432080784_">
					<use xlink:href="#SVGID_1_"  style="overflow:visible;"/>
				</clipPath>
				<path style="clip-path:url(#SVGID_00000124881849950887191690000001028884650432080784_);fill:#144B7D;" d="M367.972,246.116
					c-0.702-3.43-5.209-3.278-9.423-3.764c-4.995-0.576-10.004-1.022-15.022-1.336c-10.24-0.642-20.718-1.193-30.888,0.373
					c-0.94,0.145-1.618,0.979-1.884,1.885c-1.418-0.045-2.837-0.08-4.259-0.097c-1.762-0.022-2.21,2.747-0.423,3.129
					c19.015,4.071,38.697,1.972,57.735,5.814c0.753,0.152,1.564,0.307,2.264-0.01c0.912-0.414,1.31-1.474,1.584-2.438
					C368.078,248.183,368.158,247.024,367.972,246.116z"/>
			</g>
			<path style="fill:#C46345;" d="M365.553,230.645c-0.906-10.139-1.643-20.293-2.212-30.457c-0.211-3.766-0.001-7.782-0.567-11.506
				c-0.436-2.865-1.937-5.423-3.456-7.951c-1.662-2.764-3.245-5.576-4.711-8.448c-0.748-1.465-1.466-2.946-2.155-4.44
				c-0.887-1.924-1.07-3.197-3.331-3.764c-4.365-1.093-8.995-2.393-13.539-2.194c-4.616,0.202-9.262-0.099-13.899,0.197
				c-7.483,0.478-9.999,5.189-13.014,11.497c-1.285,2.69-2.205,5.556-2.806,8.474c-1.713,8.316-1.083,16.906-1.098,25.396
				c-0.023,12.549-1.481,25.095-4.336,37.315c22.096,2.222,44.426-0.769,66.578,0.789
				C366.482,240.589,365.997,235.619,365.553,230.645z"/>
			<path style="fill:#F2A888;" d="M318.243,179.815c-1.334-3.745-4.448-7.627-8.393-7.132c-1.672,0.21-3.135,1.189-4.499,2.18
				c-9.918,7.205-18.811,16.065-24.951,26.676c0.205-0.354-2.711-4.131-3.04-4.632c-1.052-1.603-2.104-3.207-3.156-4.81
				c-3.086-4.702-5.861-9.722-9.277-14.196c-4.879-6.391-9.583-12.685-13.443-19.763c-0.374-0.685-0.903-1.476-1.682-1.438
				c-0.676,0.033-1.159,0.739-1.19,1.415c-0.032,0.676,0.267,1.318,0.558,1.929c0.838,1.757,1.677,3.514,2.515,5.27
				c0.084,0.176,0.17,0.373,0.112,0.559c-0.054,0.174-0.219,0.287-0.372,0.385c-1.031,0.663-2.231,1.113-3.219,1.778
				c-1.114,0.749-1.892,2.333-2.526,3.476c-1.799,3.244,0.354,5.792,2.271,8.152c2.245,2.762,3.603,6.126,5,9.363
				c3.244,7.519,6.91,14.857,10.972,21.968c1.767,3.092,3.339,6.068,5.939,8.478c2.733,2.534,5.319,5.151,8.163,7.584
				c1.494,1.278,3.119,2.558,5.058,2.885c2.626,0.442,5.183-0.951,7.426-2.386c7.13-4.561,13.651-10.074,19.333-16.347
				C317.253,203.028,321.949,190.214,318.243,179.815z"/>
			<path style="fill:#C46345;" d="M285.362,189.152c6.131-6.127,12.262-12.253,18.393-18.38c1.878-1.877,3.779-3.771,6.038-5.166
				c7.482-4.617,17.666-5.059,22.191,3.32c4.942,9.152-0.723,20.663-6.149,28.457c-5.016,7.205-11.549,13.197-18.025,19.124
				c0.739,0.098,1.52-0.306,1.866-0.966"/>
			<path style="fill:#F2A888;" d="M321.723,142.265c-0.741,3.413-1.135,6.867-0.647,10.308c0.307,2.162,1.985,3.548,3.908,4.402
				c2.699,1.2,5.949,1.041,8.55-0.357c2.007-1.079,3.239-2.887,3.672-5.124c0.273-1.412,0.308-2.864,0.61-4.27
				c0.465-2.163,1.56-4.238,1.431-6.447c-0.154-2.624-2.087-4.903-4.434-6.086c-2.347-1.184-5.052-1.434-7.681-1.415
				c-1.139,0.008-2.436,0.142-3.115,1.057c-0.274,0.369-0.407,0.822-0.535,1.264C322.848,137.792,322.21,140.02,321.723,142.265z"/>
			<path d="M331.528,147.935c-0.101,0.539-0.236,1.084-0.057,1.592c0.322,0.912,1.443,1.203,2.19,1.818
				c1.042,0.859,1.637,2.047,2.739,2.874c1.286,0.966,2.634,1.645,4.227,1.977c0.443,0.092,0.914,0.152,1.34-0.003
				c0.745-0.271,1.113-1.089,1.39-1.832c0.553-1.482,1.193-3.026,1.486-4.583c0.247-1.319,0.915-2.001,1.558-3.183
				c0.856-1.575,0.915-3.492,0.487-5.233c-0.506-2.058-1.614-4.121-2.914-5.787c-1.159-1.486-2.099-3.132-3.881-3.949
				c-1.568-0.719-3.325-0.88-5.042-1.047c-2.732-0.265-5.535-0.565-8.186,0.146c-2.651,0.711-5.159,2.685-5.637,5.387
				c-0.048,0.271-0.073,0.563,0.045,0.811c0.159,0.336,0.531,0.505,0.874,0.648c1.695,0.707,3.606,1.419,5.312,0.74
				c0.775-0.309,2.856-1.444,2.466,0.176c-0.316,1.309-1.929,2.248-1.493,3.772c0.27,0.943,1.293,1.414,2.004,2.09
				c0.859,0.815,1.3,2.051,1.15,3.226C331.572,147.695,331.551,147.815,331.528,147.935z"/>
			<path style="fill:#F2A888;" d="M331.672,143.399c-4.325,0-4.332,6.04,0,6.04C335.997,149.439,336.004,143.399,331.672,143.399z"
				/>
			<path d="M302.611,431.751c1.804,0,3.138-1.656,2.785-3.425c-0.472-2.366-0.722-4.779-0.482-7.191
				c0.058-0.586,0.142-1.182,0.031-1.76c-0.111-0.578-0.46-1.151-1.014-1.349c-0.397-0.142-0.834-0.076-1.252-0.024
				c-2.47,0.307-4.819-0.33-7.272-0.246c-1.384,0.048-2.778-0.008-4.148-0.22c-1.472-0.228-3.295-1.358-4.693-1.376
				c-2.197-0.028-3.675,3.379-5.979,4.269c-3.685,1.424-7.602,2.226-11.196,3.867c-3.116,1.422-6.81,3.989-7.886,7.456H302.611z"/>
			<path style="fill:#C46345;" d="M343.092,184.513c1.985,2.944,3.971,5.887,5.955,8.832c1.401,2.08,2.693,4.73,5.37,5.277
				c2.275,0.469,3.79,4.921,5.4,6.354c3.811,3.393,6.035,0.136,9.323-2.768c6.67-5.892,12.825-12.367,18.367-19.331
				c-14.883-11.139-32.402-19.383-50.179-20.929C320.854,160.516,340.048,179.999,343.092,184.513z"/>
			<path style="fill:#F2A888;" d="M258.79,166.261c-0.177-0.069-0.354-0.135-0.529-0.2c-1.434-0.529-3.239-0.604-3.4,1.365
				c-0.039,0.481,0.038,0.995,0.339,1.373c0.212,0.267,0.514,0.442,0.787,0.647c0.427,0.32,0.789,0.718,1.148,1.114
				c0.217,0.24,0.438,0.485,0.568,0.781c0.469,1.073,1.346,3.716,2.93,2.159c0.432-0.425,0.627-1.032,0.781-1.618
				c0.344-1.311,0.535-2.801-0.2-3.94C260.67,167.1,259.738,166.633,258.79,166.261z"/>
			<path style="fill:#5CC9BF;" d="M274.445,425.431c-0.453-0.62-0.967-1.293-1.373-2.011c-0.444-0.786-0.789-1.615-1.12-2.452
				c-0.261-0.66-1.164-0.408-1.057,0.291c0.246,1.604,1,3.211,1.957,4.514c0.283,0.385,0.626,0.962,1.17,0.962
				c0.296,0,0.564-0.204,0.642-0.489C274.744,425.955,274.613,425.662,274.445,425.431z"/>
			<path style="fill:#5CC9BF;" d="M279.208,423.396c-0.051-0.188-0.144-0.352-0.253-0.51c-0.362-0.53-0.792-1.019-1.268-1.45
				c-0.521-0.471-1.079-0.896-1.703-1.222c-0.215-0.112-0.471-0.071-0.622,0.124c-0.145,0.188-0.133,0.461,0.038,0.633
				c0.414,0.417,0.828,0.838,1.212,1.282c0.191,0.221,0.397,0.446,0.564,0.687c-0.103-0.148,0.017,0.023,0.045,0.061
				c0.046,0.062,0.092,0.125,0.137,0.188c0.086,0.12,0.174,0.238,0.261,0.357c0.273,0.37,0.601,0.884,1.148,0.725
				C279.139,424.163,279.303,423.75,279.208,423.396z"/>
			<path style="fill:#5CC9BF;" d="M284.636,420.756c-0.526-0.526-1.177-0.852-1.822-1.21c-0.616-0.342-1.247-0.657-1.874-0.98
				c-0.255-0.132-0.578-0.066-0.728,0.191c-0.154,0.263-0.047,0.566,0.191,0.728c0.583,0.398,1.16,0.803,1.755,1.182
				c0.623,0.397,1.218,0.811,1.933,1.024C284.633,421.852,285.026,421.146,284.636,420.756z"/>
			<path style="fill:#5CC9BF;" d="M351.695,420.98c-0.008-0.027-0.013-0.035-0.016-0.038c-0.001-0.007-0.001-0.01-0.002-0.018
				c-0.014-0.105-0.046-0.206-0.104-0.296c-0.077-0.117-0.181-0.205-0.283-0.298c-0.139-0.128-0.285-0.247-0.427-0.373
				c-0.29-0.257-0.576-0.518-0.852-0.789c-0.549-0.54-1.053-1.124-1.565-1.698c-0.156-0.174-0.448-0.176-0.622-0.037
				c-0.187,0.149-0.238,0.399-0.122,0.612c0.389,0.717,0.88,1.362,1.404,1.987c0.249,0.297,0.507,0.587,0.779,0.862
				c0.139,0.141,0.279,0.283,0.43,0.411c0.083,0.07,0.167,0.14,0.253,0.206c0.123,0.095,0.258,0.13,0.397,0.141
				c0.018,0.002,0.035,0.005,0.053,0.007c0.202,0.028,0.383,0.011,0.536-0.142C351.688,421.381,351.753,421.165,351.695,420.98z"/>
			<g>
				<path style="fill:#5CC9BF;" d="M356.877,419.345c-0.091-0.296-0.281-0.502-0.505-0.704c-0.226-0.204-0.45-0.409-0.677-0.611
					c-0.454-0.405-0.912-0.805-1.369-1.207c-0.468-0.412-0.964-0.79-1.439-1.192c-0.372-0.315-0.87,0.17-0.539,0.539
					c0.68,0.757,1.348,1.523,2.044,2.267c0.343,0.366,0.689,0.729,1.037,1.091c0.046,0.047,0.09,0.097,0.137,0.143
					c0.017,0.017,0.021,0.02,0.029,0.028c0-0.002,0-0.001,0-0.003c0-0.002,0-0.001,0-0.003c-0.014-0.016-0.028-0.033-0.026-0.034
					c0.017-0.01,0.023,0.008,0.026,0.03c0.002-0.041,0.001-0.023,0.002,0.006c0,0-0.001-0.001-0.001-0.001
					c0,0.002,0.001,0.004,0.001,0.007c0,0,0,0,0,0.001c0,0.002,0,0.003,0,0.005c0,0.004,0.001,0.007,0.001,0.011
					c0.001,0.01,0.002,0.02,0.003,0.026c0.001,0.003,0.003,0.011,0.005,0.017c-0.009-0.025-0.006,0.002-0.005,0.036
					c0.002,0.063,0.01,0.14,0.026,0.2c0.021,0.112,0.067,0.221,0.14,0.289c0.264,0.247,0.702,0.254,0.95-0.027
					C356.938,420.009,356.971,419.654,356.877,419.345z"/>
				<path style="fill:#5CC9BF;" d="M349.072,423.129c-0.091-0.296-0.281-0.502-0.505-0.704c-0.226-0.204-0.45-0.409-0.677-0.611
					c-0.453-0.405-0.912-0.805-1.369-1.207c-0.468-0.413-0.964-0.79-1.439-1.192c-0.372-0.315-0.87,0.17-0.538,0.539
					c0.68,0.757,1.348,1.523,2.044,2.267c0.343,0.366,0.689,0.729,1.037,1.091c0.046,0.048,0.09,0.097,0.137,0.143
					c0.018,0.017,0.022,0.021,0.029,0.028c0-0.002,0-0.001,0-0.002c0-0.002,0-0.002,0-0.003c-0.013-0.016-0.028-0.033-0.026-0.034
					c0.017-0.01,0.023,0.008,0.026,0.03c0.002-0.041,0.001-0.023,0.002,0.006c0,0-0.001-0.001-0.001-0.001
					c0,0.002,0.001,0.004,0.001,0.007c0,0,0,0,0.001,0c0,0.002,0,0.003,0,0.005c0,0.004,0.001,0.007,0.001,0.011
					c0.001,0.01,0.001,0.02,0.003,0.026c0.001,0.004,0.003,0.011,0.005,0.017c-0.009-0.025-0.006,0.002-0.005,0.035
					c0.002,0.063,0.01,0.14,0.026,0.2c0.021,0.112,0.067,0.221,0.14,0.289c0.264,0.247,0.702,0.254,0.95-0.027
					C349.133,423.793,349.167,423.438,349.072,423.129z"/>
				<path style="fill:#5CC9BF;" d="M355.598,419.699c0,0-0.001-0.001-0.002-0.001c-0.002,0.057,0.003,0.045,0.003,0.018
					c0-0.004-0.001-0.007-0.001-0.011C355.598,419.703,355.598,419.701,355.598,419.699z"/>
				<polygon style="fill:#5CC9BF;" points="355.597,419.688 355.596,419.692 355.597,419.693 				"/>
			</g>
			<path d="M343.542,252.276c-0.057-0.643-1.008-0.666-1.018,0c-0.028,1.881-0.175,3.747-0.551,5.593
				c-0.359,1.759-0.866,3.484-1.42,5.191c-1.164,3.584-2.477,7.105-3.35,10.777c-0.917,3.859-1.527,7.784-2.186,11.693
				c-0.674,4.006-1.337,8.014-1.999,12.023c-0.744,4.502-1.477,9.006-2.168,13.516c-0.058,0.378,0.512,0.549,0.585,0.161
				c1.511-8.058,2.91-16.139,4.3-24.219c0.674-3.917,1.291-7.852,2.164-11.732c0.836-3.714,2.085-7.27,3.32-10.863
				C342.542,260.569,343.907,256.396,343.542,252.276z"/>
			<path d="M325.107,192.696c-1.446,1.584-2.536,3.531-3.783,5.276c-1.322,1.85-2.692,3.663-4.088,5.457
				c-1.354,1.74-2.747,3.45-4.179,5.127c-1.455,1.704-2.996,3.355-4.379,5.118c-0.198,0.252,0.107,0.575,0.357,0.357
				c1.708-1.487,3.244-3.221,4.739-4.919c1.455-1.652,2.873-3.337,4.252-5.053c1.36-1.692,2.666-3.429,3.939-5.187
				c0.668-0.923,1.326-1.854,1.972-2.793c0.649-0.942,1.314-1.865,1.78-2.912C325.883,192.794,325.429,192.343,325.107,192.696z"/>
			<path d="M363.353,195.384c-0.392-2.076-0.783-4.153-1.189-6.226c-0.421-2.147-0.739-4.355-1.391-6.446
				c-0.082-0.263-0.529-0.232-0.504,0.068c0.172,2.053,0.661,4.084,1.053,6.104c0.396,2.04,0.807,4.077,1.215,6.115
				c0.802,4.013,1.596,8.147,0.753,12.222c-0.059,0.287,0.366,0.41,0.442,0.122C364.779,203.397,364.096,199.32,363.353,195.384z"/>
			<path d="M324.278,149.924c-0.55,0.187-1.106,0.303-1.69,0.27c-0.589-0.033-1.107-0.241-1.657-0.426
				c-0.137-0.046-0.254,0.15-0.144,0.247c0.476,0.415,1.156,0.585,1.772,0.636c0.643,0.054,1.308-0.036,1.892-0.316
				C324.68,150.226,324.519,149.842,324.278,149.924z"/>
			<path d="M333.267,145.398c-0.28-0.166-0.575-0.253-0.901-0.255c-0.336-0.003-0.657,0.069-0.962,0.204
				c-0.286,0.127-0.553,0.31-0.772,0.535c-0.117,0.121-0.224,0.256-0.313,0.399c-0.103,0.165-0.144,0.319-0.159,0.512
				c-0.02,0.267,0.34,0.316,0.468,0.127c0.075-0.111,0.139-0.215,0.209-0.336c0.064-0.11,0.125-0.197,0.209-0.288
				c0.177-0.195,0.385-0.346,0.621-0.461c0.453-0.221,1-0.292,1.492-0.181C333.311,145.688,333.407,145.482,333.267,145.398z"/>
			<path d="M308.582,263.862c-0.29-0.371-0.906-0.48-1.316-0.697c-0.45-0.237-0.884-0.517-1.278-0.84
				c-0.792-0.651-1.448-1.449-1.921-2.359c-1.139-2.191-0.934-4.608-1.22-6.977c-0.04-0.328-0.576-0.485-0.641-0.087
				c-0.413,2.52-0.292,5.427,0.872,7.74c0.516,1.025,1.262,1.955,2.143,2.689c0.432,0.36,0.895,0.686,1.389,0.957
				c0.503,0.275,1.14,0.67,1.723,0.521C308.784,264.695,308.832,264.181,308.582,263.862z"/>
			<path style="fill:#BF7E71;" d="M391.074,198.612c-0.123-0.356-0.745-0.448-0.818,0c-0.062,0.377-0.051,0.747-0.127,1.122
				c-0.074,0.364-0.185,0.705-0.34,1.017c-0.334,0.672-0.79,1.231-1.353,1.742c-0.403,0.366,0.111,0.977,0.565,0.732
				c0.815-0.438,1.389-1.147,1.748-1.993c0.168-0.396,0.292-0.803,0.355-1.229C391.169,199.572,391.219,199.034,391.074,198.612z"/>
			<path style="fill:#BF7E71;" d="M285.548,223.942c-0.725-0.033-1.45-0.061-2.151-0.269c-0.688-0.204-1.326-0.559-1.859-1.04
				c-0.38-0.344-0.934,0.2-0.566,0.566c1.154,1.147,3.047,1.992,4.679,1.506C286.077,224.578,285.985,223.961,285.548,223.942z"/>
			<path style="fill:#BF7E71;" d="M283.41,204.9c-0.174-0.375-0.356-0.722-0.597-1.059c-0.244-0.342-0.489-0.684-0.733-1.026
				c-0.482-0.675-0.981-1.335-1.481-1.997c-0.214-0.283-0.685-0.034-0.49,0.286c0.436,0.715,0.873,1.429,1.329,2.133
				c0.22,0.34,0.441,0.681,0.661,1.021c0.242,0.373,0.516,0.697,0.822,1.018C283.18,205.548,283.551,205.205,283.41,204.9z"/>
			<path style="fill:#BF7E71;" d="M329.397,155.878c-0.708,0.235-1.42,0.46-2.148,0.623c-0.729,0.163-1.46,0.242-2.204,0.305
				c-0.372,0.031-0.367,0.536,0,0.575c1.549,0.163,3.246-0.124,4.645-0.807C330.076,156.386,329.806,155.742,329.397,155.878z"/>
		</g>
		<g>
			<g>
				
					<line style="fill:none;stroke:#666666;stroke-width:0.5;stroke-miterlimit:10;" x1="439.201" y1="147.329" x2="424.518" y2="167.327"/>
				
					<line style="fill:none;stroke:#666666;stroke-width:0.5;stroke-miterlimit:10;" x1="426.396" y1="171.702" x2="432.011" y2="164.093"/>
			</g>
			<polyline style="fill:none;stroke:#666666;stroke-width:0.5;stroke-miterlimit:10;" points="64.399,146.355 62.501,140.782 
				68.07,140.525 66.674,134.471 72.557,134.395 70.945,128.432 76.921,128.026 75.478,122.037 			"/>
			<path style="fill:none;stroke:#666666;stroke-width:0.5;stroke-miterlimit:10;" d="M297.565,75.883
				c-1.283,1.482-3.525,1.643-5.007,0.36c-1.482-1.283-1.643-3.525-0.36-5.007c1.283-1.482,3.525-1.643,5.007-0.36
				C298.688,72.159,298.848,74.401,297.565,75.883z"/>
			<path style="fill:none;stroke:#666666;stroke-width:0.5;stroke-miterlimit:10;" d="M237.532,305.1
				c2.897,0,5.245,2.348,5.245,5.245c0,2.897-2.348,5.245-5.245,5.245"/>
			<polyline style="fill:none;stroke:#666666;stroke-width:0.5;stroke-miterlimit:10;" points="424.076,316.383 422.032,310.012 
				428.534,310.447 426.862,303.582 433.921,303.273 431.661,297.191 			"/>
			<path style="fill:none;stroke:#666666;stroke-width:0.5;stroke-miterlimit:10;" d="M201.883,330.145
				c0.388-0.417,0.808-0.824,1.253-1.22c2.237-1.988,4.825-3.592,6.825-5.819c1.669-1.859,2.883-4.124,3.507-6.543
				c0.598-2.319,0.803-5.02,2.686-6.499c1.359-1.068,3.344-1.152,4.905-0.411c4.262,2.024,4.165,8.484,2.592,12.267
				c-0.84,2.019-2.269,3.733-3.286,5.669c-3.124,5.949-4.262,15.503-12.771,16.429c-3.634,0.396-6.814-1.381-8.024-4.883
				C198.346,335.594,199.539,332.666,201.883,330.145z"/>
			<path style="fill:none;stroke:#666666;stroke-width:0.5;stroke-miterlimit:10;" d="M381.953,383.091
				c-0.247-4.364,2.262-8.47,2.385-12.839c0.066-2.337-0.555-4.631-0.936-6.938c-0.382-2.307-0.506-4.771,0.486-6.889
				s3.399-3.721,5.656-3.111c2.419,0.654,3.615,3.376,4.057,5.843c0.491,2.742,0.463,5.575-0.083,8.306
				c-0.695,3.479-2.225,6.857-2.055,10.401c0.122,2.552,1.128,5.021,1.071,7.575c-0.064,2.9-2.565,6.634-5.804,5.608
				C383.846,390.135,382.106,385.802,381.953,383.091z"/>
			<g>
				<path style="fill:none;stroke:#666666;stroke-width:0.5;stroke-miterlimit:10;" d="M75.033,290.409
					c-4.076,5.767-8.153,11.534-12.229,17.301"/>
				<path style="fill:none;stroke:#666666;stroke-width:0.5;stroke-miterlimit:10;" d="M68.544,305.62
					c2.569-3.422,5.041-6.911,7.41-10.464"/>
			</g>
		</g>
	</g>
</g>
</svg>
